G75*
G70*
%OFA0B0*%
%FSLAX24Y24*%
%IPPOS*%
%LPD*%
%AMOC8*
5,1,8,0,0,1.08239X$1,22.5*
%
%ADD10C,0.0520*%
%ADD11OC8,0.0520*%
%ADD12OC8,0.0560*%
%ADD13C,0.0600*%
%ADD14C,0.0520*%
%ADD15C,0.0660*%
%ADD16R,0.0594X0.0594*%
%ADD17C,0.0594*%
%ADD18OC8,0.0630*%
%ADD19C,0.0630*%
%ADD20C,0.0886*%
%ADD21C,0.1660*%
%ADD22C,0.0250*%
%ADD23C,0.0240*%
%ADD24C,0.0400*%
D10*
X007078Y003867D02*
X007078Y004387D01*
X008078Y004387D02*
X008078Y003867D01*
X009078Y003867D02*
X009078Y004387D01*
X010078Y004387D02*
X010078Y003867D01*
X011078Y003867D02*
X011078Y004387D01*
X012078Y004387D02*
X012078Y003867D01*
X013078Y003867D02*
X013078Y004387D01*
X014078Y004387D02*
X014078Y003867D01*
X015078Y003867D02*
X015078Y004387D01*
X016078Y004387D02*
X016078Y003867D01*
X017078Y003867D02*
X017078Y004387D01*
X018078Y004387D02*
X018078Y003867D01*
X019078Y003867D02*
X019078Y004387D01*
X020078Y004387D02*
X020078Y003867D01*
X021078Y003867D02*
X021078Y004387D01*
X022078Y004387D02*
X022078Y003867D01*
X023078Y003867D02*
X023078Y004387D01*
X024078Y004387D02*
X024078Y003867D01*
X025078Y003867D02*
X025078Y004387D01*
X026078Y004387D02*
X026078Y003867D01*
X026078Y009867D02*
X026078Y010387D01*
X025078Y010387D02*
X025078Y009867D01*
X024078Y009867D02*
X024078Y010387D01*
X023078Y010387D02*
X023078Y009867D01*
X022078Y009867D02*
X022078Y010387D01*
X021078Y010387D02*
X021078Y009867D01*
X020078Y009867D02*
X020078Y010387D01*
X019078Y010387D02*
X019078Y009867D01*
X018078Y009867D02*
X018078Y010387D01*
X017078Y010387D02*
X017078Y009867D01*
X016078Y009867D02*
X016078Y010387D01*
X015078Y010387D02*
X015078Y009867D01*
X014078Y009867D02*
X014078Y010387D01*
X013078Y010387D02*
X013078Y009867D01*
X012078Y009867D02*
X012078Y010387D01*
X011078Y010387D02*
X011078Y009867D01*
X010078Y009867D02*
X010078Y010387D01*
X009078Y010387D02*
X009078Y009867D01*
X008078Y009867D02*
X008078Y010387D01*
X007078Y010387D02*
X007078Y009867D01*
D11*
X001478Y001827D03*
X002478Y002077D03*
X003478Y002077D03*
X005078Y002077D03*
X006078Y002077D03*
X005878Y003227D03*
X004878Y003227D03*
X003728Y003227D03*
X002728Y003227D03*
X001478Y003827D03*
X002628Y010577D03*
X004628Y010577D03*
X027778Y008877D03*
X028778Y008877D03*
X033628Y007377D03*
X036628Y007377D03*
X038078Y006877D03*
X038078Y004877D03*
X038078Y003927D03*
X038078Y001927D03*
X028878Y002377D03*
X027878Y002377D03*
D12*
X030878Y003777D03*
X031878Y003777D03*
X031878Y004777D03*
X030878Y004777D03*
X030878Y005777D03*
X031878Y005777D03*
X031878Y006777D03*
X030878Y006777D03*
X030878Y007777D03*
X031878Y007777D03*
X004578Y007827D03*
X003578Y007827D03*
X003578Y006827D03*
X004578Y006827D03*
X004578Y005827D03*
X003578Y005827D03*
D13*
X001728Y005377D02*
X001128Y005377D01*
X001128Y006377D02*
X001728Y006377D01*
X001728Y007377D02*
X001128Y007377D01*
X001128Y008377D02*
X001728Y008377D01*
X001728Y009377D02*
X001128Y009377D01*
X001128Y010377D02*
X001728Y010377D01*
X005478Y010477D02*
X006078Y010477D01*
X006078Y011477D02*
X005478Y011477D01*
X007078Y011827D02*
X007078Y012427D01*
X008078Y012427D02*
X008078Y011827D01*
X009078Y011827D02*
X009078Y012427D01*
X010078Y012427D02*
X010078Y011827D01*
X011078Y011827D02*
X011078Y012427D01*
X012078Y012427D02*
X012078Y011827D01*
X013078Y011827D02*
X013078Y012427D01*
X014078Y012427D02*
X014078Y011827D01*
X015078Y011827D02*
X015078Y012427D01*
X016078Y012427D02*
X016078Y011827D01*
X017078Y011827D02*
X017078Y012427D01*
X018078Y012427D02*
X018078Y011827D01*
X019078Y011827D02*
X019078Y012427D01*
X020078Y012427D02*
X020078Y011827D01*
X021078Y011827D02*
X021078Y012427D01*
X022078Y012427D02*
X022078Y011827D01*
X023078Y011827D02*
X023078Y012427D01*
X024078Y012427D02*
X024078Y011827D01*
X025078Y011827D02*
X025078Y012427D01*
X026078Y012427D02*
X026078Y011827D01*
X027078Y011827D02*
X027078Y012427D01*
X028078Y012427D02*
X028078Y011827D01*
X034038Y011707D02*
X034038Y011107D01*
X035818Y011107D02*
X035818Y011707D01*
X035818Y009147D02*
X035818Y008547D01*
X034038Y008547D02*
X034038Y009147D01*
X026078Y002427D02*
X026078Y001827D01*
X025078Y001827D02*
X025078Y002427D01*
X024078Y002427D02*
X024078Y001827D01*
X023078Y001827D02*
X023078Y002427D01*
X022078Y002427D02*
X022078Y001827D01*
X021078Y001827D02*
X021078Y002427D01*
X020078Y002427D02*
X020078Y001827D01*
X019078Y001827D02*
X019078Y002427D01*
X018078Y002427D02*
X018078Y001827D01*
X017078Y001827D02*
X017078Y002427D01*
X016078Y002427D02*
X016078Y001827D01*
X015078Y001827D02*
X015078Y002427D01*
X014078Y002427D02*
X014078Y001827D01*
X013078Y001827D02*
X013078Y002427D01*
X012078Y002427D02*
X012078Y001827D01*
X011078Y001827D02*
X011078Y002427D01*
X010078Y002427D02*
X010078Y001827D01*
X009078Y001827D02*
X009078Y002427D01*
X008078Y002427D02*
X008078Y001827D01*
X007078Y001827D02*
X007078Y002427D01*
D14*
X028378Y004977D03*
X028378Y006877D03*
D15*
X034228Y006277D03*
X034228Y002277D03*
D16*
X039628Y005127D03*
D17*
X039628Y004127D03*
X039628Y003127D03*
D18*
X036078Y003377D03*
X036078Y005877D03*
D19*
X036078Y004877D03*
X036078Y002377D03*
D20*
X032605Y010758D02*
X032605Y011644D01*
X031034Y011648D02*
X031034Y010762D01*
X029463Y010762D02*
X029463Y011648D01*
D21*
X037235Y009927D03*
X039597Y009927D03*
X038396Y011856D03*
D22*
X036878Y011477D02*
X036878Y010727D01*
X037235Y009927D01*
X035128Y008927D02*
X035128Y008377D01*
X035578Y007927D01*
X037828Y007927D01*
X039028Y006727D01*
X039028Y003827D01*
X039478Y003377D01*
X039628Y003127D01*
X039378Y003077D01*
X038503Y002202D01*
X038428Y002277D01*
X036378Y002277D01*
X036078Y002377D01*
X038078Y001927D02*
X038328Y002027D01*
X038503Y002202D01*
X036078Y004877D02*
X035778Y004777D01*
X036078Y004877D02*
X038078Y004877D01*
X036178Y006827D02*
X035678Y006327D01*
X034228Y006277D01*
X033178Y006327D02*
X032728Y005877D01*
X032128Y005877D01*
X031878Y005777D01*
X030878Y005777D02*
X030628Y005877D01*
X026328Y005877D01*
X022878Y009327D01*
X022778Y009327D01*
X022328Y009777D01*
X022078Y010127D01*
X022078Y012127D01*
X021078Y012127D02*
X021078Y010127D01*
X021328Y009777D01*
X023628Y007477D01*
X023928Y007477D01*
X024278Y006977D02*
X023128Y006977D01*
X020328Y009777D01*
X020078Y010127D01*
X020078Y012127D01*
X019078Y012127D02*
X019078Y010127D01*
X018078Y010127D02*
X018078Y012127D01*
X017078Y012127D02*
X017078Y010127D01*
X016078Y010127D02*
X016178Y009627D01*
X016178Y008427D01*
X004328Y008427D01*
X003828Y007927D01*
X003578Y007827D01*
X003328Y007727D01*
X003178Y007727D01*
X001978Y006527D01*
X001428Y006377D01*
X002928Y006727D02*
X002928Y004377D01*
X003478Y004127D02*
X003578Y004077D01*
X005378Y004077D01*
X005478Y003977D01*
X005878Y003977D01*
X006878Y004977D01*
X015328Y004977D01*
X015828Y004477D01*
X016078Y004127D01*
X016078Y002127D01*
X017078Y002127D01*
X018078Y002127D02*
X018128Y002677D01*
X017178Y003627D01*
X017078Y004127D01*
X016978Y004627D01*
X016178Y005427D01*
X016178Y008427D01*
X015678Y009227D02*
X001978Y009227D01*
X001428Y009377D01*
X001428Y010377D02*
X001978Y010527D01*
X002378Y010527D01*
X002628Y010577D01*
X004628Y010577D02*
X004828Y010727D01*
X005328Y011227D01*
X005778Y011477D01*
X007078Y012127D02*
X007078Y010127D01*
X008078Y010127D02*
X008078Y012127D01*
X009078Y012127D02*
X009078Y010127D01*
X010078Y010127D02*
X010078Y012127D01*
X011078Y012127D02*
X011078Y010127D01*
X012078Y010127D02*
X012078Y012127D01*
X013078Y012127D02*
X013078Y010127D01*
X014078Y010127D02*
X014078Y012127D01*
X015078Y012127D02*
X015078Y010127D01*
X016078Y010127D02*
X016078Y012127D01*
X023078Y012127D02*
X023078Y010127D01*
X023328Y009777D01*
X026778Y006327D01*
X028628Y006327D01*
X029978Y007677D01*
X030628Y007677D01*
X030878Y007777D01*
X030628Y008377D02*
X032078Y008377D01*
X032478Y007977D01*
X032478Y007227D01*
X033628Y007377D02*
X033828Y007627D01*
X033828Y008377D01*
X034038Y008847D01*
X035128Y008927D02*
X033478Y010577D01*
X033028Y010577D01*
X032605Y011201D01*
X031034Y011205D02*
X031178Y010327D01*
X031178Y009877D01*
X032978Y008077D01*
X032978Y006827D01*
X033828Y006827D01*
X034428Y007277D01*
X036478Y007277D01*
X036628Y007377D01*
X036978Y006827D02*
X037378Y007227D01*
X037378Y007427D01*
X036978Y006827D02*
X036178Y006827D01*
X032978Y006827D02*
X032778Y006827D01*
X032678Y006727D01*
X032128Y006727D01*
X031878Y006777D01*
X028378Y006877D02*
X028278Y007127D01*
X028278Y008227D01*
X027878Y008627D01*
X027778Y008877D01*
X028178Y010077D02*
X026428Y008327D01*
X027328Y011677D02*
X030628Y008377D01*
X026078Y010127D02*
X026078Y012127D01*
X027078Y012127D02*
X027328Y011677D01*
X028078Y012127D02*
X028328Y012377D01*
X035978Y012377D01*
X036878Y011477D01*
X025078Y012127D02*
X025078Y010127D01*
X024078Y010127D02*
X024078Y012127D01*
X022028Y007377D02*
X016828Y007377D01*
X018028Y006877D02*
X019428Y006877D01*
X021228Y005577D01*
X018828Y004977D02*
X027878Y004977D01*
X027878Y002377D01*
X026078Y002127D02*
X026078Y004127D01*
X025078Y004127D02*
X025078Y002127D01*
X024078Y002127D02*
X024078Y004127D01*
X023078Y004127D02*
X023078Y002127D01*
X022078Y002127D02*
X022078Y004127D01*
X021078Y004127D02*
X021078Y002127D01*
X020078Y002127D02*
X020078Y004127D01*
X018828Y004977D02*
X018328Y004477D01*
X018078Y004127D01*
X015078Y004127D02*
X015078Y002127D01*
X014078Y002127D02*
X014078Y004127D01*
X013078Y004127D02*
X013078Y002127D01*
X012078Y002127D02*
X012078Y004127D01*
X011078Y004127D02*
X011078Y002127D01*
X010078Y002127D02*
X010078Y004127D01*
X009078Y004127D02*
X009078Y002127D01*
X008078Y002127D02*
X008078Y004127D01*
X007078Y004127D02*
X007078Y002127D01*
X006078Y002077D02*
X005978Y002277D01*
X005128Y003127D01*
X004878Y003227D01*
X005878Y003227D02*
X006128Y003327D01*
X006828Y004027D01*
X007078Y004127D01*
X005678Y004477D02*
X008878Y007677D01*
X003578Y005827D02*
X003478Y005577D01*
X003478Y004127D01*
X002828Y003477D01*
X002728Y003227D01*
X002628Y003027D01*
X001628Y002027D01*
X001478Y001827D01*
X003478Y002077D02*
X003578Y002327D01*
X003578Y003027D01*
X003728Y003227D01*
X022028Y007377D02*
X022378Y007027D01*
X027878Y004977D02*
X028378Y004977D01*
D23*
X028906Y005114D02*
X030423Y005114D01*
X030318Y005009D02*
X030318Y004545D01*
X030586Y004277D01*
X030318Y004009D01*
X030318Y003545D01*
X030646Y003217D01*
X031110Y003217D01*
X031421Y003528D01*
X031671Y003277D01*
X031878Y003277D01*
X031878Y003777D01*
X031879Y003777D01*
X031879Y003777D01*
X032378Y003777D01*
X032378Y003570D01*
X032086Y003277D01*
X031879Y003277D01*
X031879Y003777D01*
X032378Y003777D01*
X032378Y003984D01*
X032128Y004235D01*
X032438Y004545D01*
X032438Y005009D01*
X032170Y005277D01*
X032365Y005472D01*
X032809Y005472D01*
X032958Y005534D01*
X033072Y005648D01*
X033271Y005847D01*
X033274Y005847D01*
X033450Y005920D01*
X033585Y006055D01*
X033623Y006145D01*
X033711Y005932D01*
X033883Y005760D01*
X034107Y005667D01*
X034350Y005667D01*
X034574Y005760D01*
X034702Y005888D01*
X035543Y005917D01*
X035543Y005877D01*
X035543Y005655D01*
X035795Y005404D01*
X035741Y005381D01*
X035574Y005214D01*
X035559Y005177D01*
X035308Y005177D01*
X035149Y005177D01*
X035002Y005116D01*
X034613Y004727D01*
X034149Y004727D01*
X034002Y004666D01*
X033889Y004554D01*
X033802Y004466D01*
X033802Y004466D01*
X033689Y004354D01*
X033628Y004207D01*
X033628Y002507D01*
X033628Y002423D01*
X033618Y002398D01*
X033618Y002156D01*
X033711Y001932D01*
X033844Y001799D01*
X026658Y001799D01*
X026658Y002542D01*
X026570Y002756D01*
X026483Y002842D01*
X026483Y003508D01*
X026536Y003561D01*
X026618Y003760D01*
X026618Y004494D01*
X026586Y004572D01*
X027473Y004572D01*
X027473Y002736D01*
X027338Y002601D01*
X027338Y002153D01*
X027655Y001837D01*
X028102Y001837D01*
X028418Y002153D01*
X028418Y002158D01*
X028680Y001897D01*
X028878Y001897D01*
X028878Y002377D01*
X028879Y002377D01*
X028879Y002377D01*
X029358Y002377D01*
X029358Y002178D01*
X029077Y001897D01*
X028879Y001897D01*
X028879Y002377D01*
X029358Y002377D01*
X029358Y002576D01*
X029077Y002857D01*
X028879Y002857D01*
X028879Y002377D01*
X028878Y002377D01*
X028878Y002857D01*
X028680Y002857D01*
X028418Y002596D01*
X028418Y002601D01*
X028283Y002736D01*
X028283Y004437D01*
X028486Y004437D01*
X028684Y004519D01*
X028836Y004671D01*
X028918Y004870D01*
X028918Y005084D01*
X028836Y005283D01*
X028684Y005435D01*
X028594Y005472D01*
X030391Y005472D01*
X030586Y005277D01*
X030318Y005009D01*
X030318Y004875D02*
X028918Y004875D01*
X028801Y004636D02*
X030318Y004636D01*
X030466Y004398D02*
X028283Y004398D01*
X028283Y004159D02*
X030469Y004159D01*
X030318Y003921D02*
X028283Y003921D01*
X028283Y003682D02*
X030318Y003682D01*
X030420Y003444D02*
X028283Y003444D01*
X028283Y003205D02*
X033628Y003205D01*
X033628Y003444D02*
X032252Y003444D01*
X031879Y003444D02*
X031878Y003444D01*
X031505Y003444D02*
X031337Y003444D01*
X031878Y003682D02*
X031879Y003682D01*
X032378Y003682D02*
X033628Y003682D01*
X033628Y003921D02*
X032378Y003921D01*
X032203Y004159D02*
X033628Y004159D01*
X033734Y004398D02*
X032291Y004398D01*
X032438Y004636D02*
X033972Y004636D01*
X033889Y004554D02*
X033889Y004554D01*
X034228Y004327D02*
X034028Y004127D01*
X034028Y002427D01*
X034078Y002377D01*
X034228Y002277D01*
X034838Y002251D02*
X035487Y002251D01*
X035483Y002259D02*
X035574Y002040D01*
X035741Y001873D01*
X035919Y001799D01*
X034613Y001799D01*
X034746Y001932D01*
X034838Y002156D01*
X034838Y002398D01*
X034746Y002623D01*
X034574Y002794D01*
X034428Y002854D01*
X034428Y003927D01*
X034858Y003927D01*
X035005Y003988D01*
X035117Y004100D01*
X035394Y004377D01*
X035694Y004377D01*
X035740Y004374D01*
X035741Y004373D01*
X035960Y004282D01*
X036197Y004282D01*
X036415Y004373D01*
X036515Y004472D01*
X037720Y004472D01*
X037832Y004360D01*
X037598Y004126D01*
X037598Y003927D01*
X037598Y003728D01*
X037880Y003447D01*
X038078Y003447D01*
X038078Y003927D01*
X037598Y003927D01*
X038078Y003927D01*
X038078Y003927D01*
X038079Y003927D01*
X038079Y003927D01*
X038558Y003927D01*
X038558Y003728D01*
X038277Y003447D01*
X038079Y003447D01*
X038079Y003927D01*
X038558Y003927D01*
X038558Y004126D01*
X038325Y004360D01*
X038618Y004653D01*
X038618Y005101D01*
X038302Y005417D01*
X037855Y005417D01*
X037720Y005282D01*
X036515Y005282D01*
X036415Y005381D01*
X036362Y005404D01*
X036613Y005655D01*
X036613Y005877D01*
X036079Y005877D01*
X036079Y005877D01*
X036613Y005877D01*
X036613Y006099D01*
X036318Y006394D01*
X036346Y006422D01*
X036898Y006422D01*
X037059Y006422D01*
X037208Y006484D01*
X037598Y006874D01*
X037598Y006678D01*
X037880Y006397D01*
X038078Y006397D01*
X038078Y006877D01*
X038079Y006877D01*
X038079Y006397D01*
X038277Y006397D01*
X038531Y006651D01*
X038623Y006559D01*
X038623Y003908D01*
X038623Y003746D01*
X038685Y003598D01*
X039006Y003277D01*
X038411Y002682D01*
X038348Y002682D01*
X036596Y002682D01*
X036583Y002714D01*
X036415Y002881D01*
X036362Y002904D01*
X036613Y003155D01*
X036613Y003377D01*
X036079Y003377D01*
X036079Y003377D01*
X036613Y003377D01*
X036613Y003599D01*
X036300Y003912D01*
X036079Y003912D01*
X036079Y003377D01*
X036078Y003377D01*
X035543Y003377D01*
X035543Y003155D01*
X035795Y002904D01*
X035741Y002881D01*
X035574Y002714D01*
X035483Y002495D01*
X035483Y002259D01*
X035483Y002490D02*
X034801Y002490D01*
X034640Y002728D02*
X035588Y002728D01*
X035732Y002967D02*
X034428Y002967D01*
X034428Y003205D02*
X035543Y003205D01*
X035543Y003377D02*
X036078Y003377D01*
X036078Y003377D01*
X036078Y003912D01*
X035857Y003912D01*
X035543Y003599D01*
X035543Y003377D01*
X035543Y003444D02*
X034428Y003444D01*
X034428Y003682D02*
X035627Y003682D01*
X036078Y003682D02*
X036079Y003682D01*
X036530Y003682D02*
X037644Y003682D01*
X038078Y003682D02*
X038079Y003682D01*
X038512Y003682D02*
X038650Y003682D01*
X038623Y003921D02*
X038558Y003921D01*
X038079Y003921D02*
X038078Y003921D01*
X037598Y003921D02*
X034428Y003921D01*
X035176Y004159D02*
X037632Y004159D01*
X037794Y004398D02*
X036441Y004398D01*
X035778Y004777D02*
X035228Y004777D01*
X034778Y004327D01*
X034228Y004327D01*
X034761Y004875D02*
X032438Y004875D01*
X032334Y005114D02*
X034999Y005114D01*
X035712Y005352D02*
X032245Y005352D01*
X033015Y005591D02*
X035608Y005591D01*
X035543Y005829D02*
X034643Y005829D01*
X033814Y005829D02*
X033253Y005829D01*
X033591Y006068D02*
X033655Y006068D01*
X033072Y005648D02*
X033072Y005648D01*
X035543Y005877D02*
X036078Y005877D01*
X036078Y005877D01*
X035543Y005877D01*
X036549Y005591D02*
X038623Y005591D01*
X038623Y005829D02*
X036613Y005829D01*
X036613Y006068D02*
X038623Y006068D01*
X038623Y006306D02*
X036406Y006306D01*
X037269Y006545D02*
X037732Y006545D01*
X038078Y006545D02*
X038079Y006545D01*
X038425Y006545D02*
X038623Y006545D01*
X038079Y006783D02*
X038078Y006783D01*
X037598Y006783D02*
X037507Y006783D01*
X038058Y008270D02*
X039258Y007070D01*
X039372Y006956D01*
X039433Y006808D01*
X039433Y005704D01*
X039981Y005704D01*
X040084Y005661D01*
X040143Y005602D01*
X040143Y009030D01*
X040002Y008949D01*
X039735Y008877D01*
X039717Y008877D01*
X039717Y009807D01*
X039477Y009807D01*
X039477Y008877D01*
X039459Y008877D01*
X039192Y008949D01*
X038952Y009087D01*
X038757Y009282D01*
X038619Y009522D01*
X038547Y009789D01*
X038547Y009807D01*
X039477Y009807D01*
X039477Y010047D01*
X039477Y010977D01*
X039459Y010977D01*
X039192Y010905D01*
X038952Y010767D01*
X038757Y010572D01*
X038619Y010332D01*
X038547Y010065D01*
X038547Y010047D01*
X039477Y010047D01*
X039717Y010047D01*
X039717Y010977D01*
X039735Y010977D01*
X040002Y010905D01*
X040143Y010824D01*
X040143Y012455D01*
X039332Y012455D01*
X039430Y012285D01*
X039506Y012002D01*
X039506Y011710D01*
X039430Y011428D01*
X039284Y011175D01*
X039078Y010968D01*
X038825Y010822D01*
X038542Y010746D01*
X038250Y010746D01*
X037968Y010822D01*
X037715Y010968D01*
X037508Y011175D01*
X037362Y011428D01*
X037286Y011710D01*
X037286Y012002D01*
X037362Y012285D01*
X037460Y012455D01*
X036473Y012455D01*
X037108Y011820D01*
X037222Y011706D01*
X037283Y011558D01*
X037283Y011037D01*
X037381Y011037D01*
X037663Y010961D01*
X037916Y010815D01*
X038123Y010609D01*
X038269Y010355D01*
X038345Y010073D01*
X038345Y009781D01*
X038269Y009499D01*
X038123Y009246D01*
X037916Y009039D01*
X037663Y008893D01*
X037381Y008817D01*
X037089Y008817D01*
X036806Y008893D01*
X036553Y009039D01*
X036347Y009246D01*
X036325Y009283D01*
X036338Y009251D01*
X036338Y008847D01*
X035819Y008847D01*
X035819Y008847D01*
X036338Y008847D01*
X036338Y008444D01*
X036292Y008332D01*
X037748Y008332D01*
X037909Y008332D01*
X038058Y008270D01*
X038114Y008215D02*
X040143Y008215D01*
X040143Y008453D02*
X036338Y008453D01*
X036338Y008692D02*
X040143Y008692D01*
X040143Y008930D02*
X039933Y008930D01*
X039717Y008930D02*
X039477Y008930D01*
X039260Y008930D02*
X037728Y008930D01*
X038046Y009169D02*
X038870Y009169D01*
X038685Y009407D02*
X038216Y009407D01*
X038308Y009646D02*
X038585Y009646D01*
X038345Y009884D02*
X039477Y009884D01*
X039477Y009646D02*
X039717Y009646D01*
X039717Y009407D02*
X039477Y009407D01*
X039477Y009169D02*
X039717Y009169D01*
X039717Y010123D02*
X039477Y010123D01*
X039477Y010362D02*
X039717Y010362D01*
X039717Y010600D02*
X039477Y010600D01*
X039477Y010839D02*
X039717Y010839D01*
X040118Y010839D02*
X040143Y010839D01*
X040143Y011077D02*
X039187Y011077D01*
X039366Y011316D02*
X040143Y011316D01*
X040143Y011554D02*
X039464Y011554D01*
X039506Y011793D02*
X040143Y011793D01*
X040143Y012031D02*
X039498Y012031D01*
X039434Y012270D02*
X040143Y012270D01*
X037358Y012270D02*
X036658Y012270D01*
X036897Y012031D02*
X037294Y012031D01*
X037286Y011793D02*
X037135Y011793D01*
X037283Y011554D02*
X037328Y011554D01*
X037283Y011316D02*
X037427Y011316D01*
X037283Y011077D02*
X037606Y011077D01*
X037876Y010839D02*
X037939Y010839D01*
X038128Y010600D02*
X038785Y010600D01*
X038635Y010362D02*
X038266Y010362D01*
X038331Y010123D02*
X038562Y010123D01*
X038853Y010839D02*
X039076Y010839D01*
X036473Y010839D02*
X036270Y010839D01*
X036259Y010813D02*
X036338Y011004D01*
X036338Y011407D01*
X035819Y011407D01*
X035819Y011407D01*
X036338Y011407D01*
X036338Y011444D01*
X036473Y011309D01*
X036473Y010802D01*
X036471Y010797D01*
X036473Y010735D01*
X036347Y010609D01*
X036200Y010355D01*
X036125Y010073D01*
X036125Y009781D01*
X036200Y009501D01*
X036113Y009588D01*
X035922Y009667D01*
X035819Y009667D01*
X035819Y008847D01*
X035818Y008847D01*
X035818Y009667D01*
X035715Y009667D01*
X035524Y009588D01*
X035378Y009442D01*
X035322Y009307D01*
X034101Y010527D01*
X034154Y010527D01*
X034367Y010615D01*
X034530Y010779D01*
X034618Y010992D01*
X034618Y011822D01*
X034556Y011972D01*
X035365Y011972D01*
X035298Y011811D01*
X035298Y011407D01*
X035298Y011004D01*
X035378Y010813D01*
X035524Y010666D01*
X035715Y010587D01*
X035818Y010587D01*
X035818Y011407D01*
X035298Y011407D01*
X035818Y011407D01*
X035818Y011407D01*
X035819Y011407D01*
X035819Y010587D01*
X035922Y010587D01*
X036113Y010666D01*
X036259Y010813D01*
X035819Y010839D02*
X035818Y010839D01*
X035367Y010839D02*
X034555Y010839D01*
X034618Y011077D02*
X035298Y011077D01*
X035298Y011316D02*
X034618Y011316D01*
X034618Y011554D02*
X035298Y011554D01*
X035298Y011793D02*
X034618Y011793D01*
X035818Y011316D02*
X035819Y011316D01*
X035818Y011077D02*
X035819Y011077D01*
X036338Y011077D02*
X036473Y011077D01*
X036467Y011316D02*
X036338Y011316D01*
X036342Y010600D02*
X035953Y010600D01*
X035819Y010600D02*
X035818Y010600D01*
X035684Y010600D02*
X034330Y010600D01*
X034267Y010362D02*
X036204Y010362D01*
X036138Y010123D02*
X034505Y010123D01*
X034744Y009884D02*
X036125Y009884D01*
X036161Y009646D02*
X035973Y009646D01*
X035819Y009646D02*
X035818Y009646D01*
X035664Y009646D02*
X034982Y009646D01*
X035221Y009407D02*
X035363Y009407D01*
X035818Y009407D02*
X035819Y009407D01*
X035818Y009169D02*
X035819Y009169D01*
X035818Y008930D02*
X035819Y008930D01*
X036338Y008930D02*
X036741Y008930D01*
X036423Y009169D02*
X036338Y009169D01*
X038352Y007976D02*
X040143Y007976D01*
X040143Y007738D02*
X038591Y007738D01*
X038829Y007499D02*
X040143Y007499D01*
X040143Y007260D02*
X039068Y007260D01*
X039306Y007022D02*
X040143Y007022D01*
X040143Y006783D02*
X039433Y006783D01*
X039433Y006545D02*
X040143Y006545D01*
X040143Y006306D02*
X039433Y006306D01*
X039433Y006068D02*
X040143Y006068D01*
X040143Y005829D02*
X039433Y005829D01*
X038623Y005352D02*
X038367Y005352D01*
X038606Y005114D02*
X038623Y005114D01*
X038618Y004875D02*
X038623Y004875D01*
X038623Y004636D02*
X038601Y004636D01*
X038623Y004398D02*
X038363Y004398D01*
X038525Y004159D02*
X038623Y004159D01*
X038839Y003444D02*
X036613Y003444D01*
X036613Y003205D02*
X038934Y003205D01*
X038695Y002967D02*
X036425Y002967D01*
X036569Y002728D02*
X038457Y002728D01*
X036079Y003444D02*
X036078Y003444D01*
X033628Y002967D02*
X028283Y002967D01*
X028291Y002728D02*
X028551Y002728D01*
X028878Y002728D02*
X028879Y002728D01*
X028878Y002490D02*
X028879Y002490D01*
X029206Y002728D02*
X033628Y002728D01*
X033628Y002490D02*
X029358Y002490D01*
X029358Y002251D02*
X033618Y002251D01*
X033678Y002013D02*
X029193Y002013D01*
X028879Y002013D02*
X028878Y002013D01*
X028564Y002013D02*
X028277Y002013D01*
X028878Y002251D02*
X028879Y002251D01*
X027479Y002013D02*
X026658Y002013D01*
X026658Y002251D02*
X027338Y002251D01*
X027338Y002490D02*
X026658Y002490D01*
X026581Y002728D02*
X027466Y002728D01*
X027473Y002967D02*
X026483Y002967D01*
X026483Y003205D02*
X027473Y003205D01*
X027473Y003444D02*
X026483Y003444D01*
X026586Y003682D02*
X027473Y003682D01*
X027473Y003921D02*
X026618Y003921D01*
X026618Y004159D02*
X027473Y004159D01*
X027473Y004398D02*
X026618Y004398D01*
X028767Y005352D02*
X030511Y005352D01*
X028858Y007130D02*
X028836Y007183D01*
X028684Y007335D01*
X028683Y007335D01*
X028683Y008146D01*
X028683Y008308D01*
X028646Y008397D01*
X028778Y008397D01*
X028778Y008877D01*
X028779Y008877D01*
X028779Y008877D01*
X029258Y008877D01*
X029258Y008678D01*
X028977Y008397D01*
X028779Y008397D01*
X028779Y008877D01*
X029258Y008877D01*
X029258Y009076D01*
X028977Y009357D01*
X028779Y009357D01*
X028779Y008877D01*
X028778Y008877D01*
X028778Y009357D01*
X028580Y009357D01*
X028318Y009096D01*
X028318Y009101D01*
X028047Y009372D01*
X028271Y009597D01*
X028274Y009597D01*
X028450Y009670D01*
X028585Y009805D01*
X028598Y009835D01*
X030285Y008148D01*
X030351Y008082D01*
X030059Y008082D01*
X029898Y008082D01*
X029749Y008020D01*
X028858Y007130D01*
X028759Y007260D02*
X028989Y007260D01*
X029228Y007499D02*
X028683Y007499D01*
X028683Y007738D02*
X029466Y007738D01*
X029705Y007976D02*
X028683Y007976D01*
X028683Y008215D02*
X030218Y008215D01*
X029980Y008453D02*
X029033Y008453D01*
X028779Y008453D02*
X028778Y008453D01*
X028778Y008692D02*
X028779Y008692D01*
X029258Y008692D02*
X029741Y008692D01*
X029502Y008930D02*
X029258Y008930D01*
X028779Y008930D02*
X028778Y008930D01*
X028778Y009169D02*
X028779Y009169D01*
X029165Y009169D02*
X029264Y009169D01*
X029025Y009407D02*
X028081Y009407D01*
X028392Y009646D02*
X028787Y009646D01*
X028391Y009169D02*
X028250Y009169D01*
X021751Y007782D02*
X017102Y007782D01*
X017100Y007784D01*
X016924Y007857D01*
X016733Y007857D01*
X016556Y007784D01*
X016421Y007649D01*
X016348Y007473D01*
X016348Y007282D01*
X016421Y007105D01*
X016556Y006970D01*
X016733Y006897D01*
X016924Y006897D01*
X017100Y006970D01*
X017102Y006972D01*
X017548Y006972D01*
X017548Y006782D01*
X017621Y006605D01*
X017756Y006470D01*
X017933Y006397D01*
X018124Y006397D01*
X018300Y006470D01*
X018302Y006472D01*
X019297Y006472D01*
X020782Y005400D01*
X020790Y005382D01*
X018748Y005382D01*
X018599Y005320D01*
X018485Y005206D01*
X018200Y004921D01*
X018186Y004927D01*
X017971Y004927D01*
X017773Y004845D01*
X017621Y004693D01*
X017546Y004513D01*
X017485Y004659D01*
X017350Y004794D01*
X017174Y004867D01*
X017079Y004867D01*
X017079Y004127D01*
X017079Y003387D01*
X017174Y003387D01*
X017350Y003460D01*
X017485Y003595D01*
X017546Y003742D01*
X017621Y003561D01*
X017773Y003409D01*
X017971Y003327D01*
X018186Y003327D01*
X018384Y003409D01*
X018536Y003561D01*
X018578Y003663D01*
X018621Y003561D01*
X018773Y003409D01*
X018971Y003327D01*
X019186Y003327D01*
X019384Y003409D01*
X019536Y003561D01*
X019578Y003663D01*
X019621Y003561D01*
X019673Y003508D01*
X019673Y002842D01*
X019587Y002756D01*
X019546Y002657D01*
X019519Y002722D01*
X019373Y002868D01*
X019182Y002947D01*
X019079Y002947D01*
X019079Y002127D01*
X019078Y002127D01*
X018558Y002127D01*
X018079Y002127D01*
X018079Y002127D01*
X018558Y002127D01*
X019078Y002127D01*
X019078Y002127D01*
X019078Y002947D01*
X018975Y002947D01*
X018784Y002868D01*
X018638Y002722D01*
X018578Y002579D01*
X018519Y002722D01*
X018373Y002868D01*
X018182Y002947D01*
X018079Y002947D01*
X018079Y002127D01*
X018078Y002127D01*
X018078Y002947D01*
X017975Y002947D01*
X017784Y002868D01*
X017638Y002722D01*
X017611Y002657D01*
X017570Y002756D01*
X017407Y002919D01*
X017194Y003007D01*
X016963Y003007D01*
X016750Y002919D01*
X016587Y002756D01*
X016578Y002735D01*
X016570Y002756D01*
X016483Y002842D01*
X016483Y003508D01*
X016536Y003561D01*
X016611Y003742D01*
X016671Y003595D01*
X016806Y003460D01*
X016983Y003387D01*
X017078Y003387D01*
X017078Y004127D01*
X017079Y004127D01*
X017078Y004127D01*
X017078Y004867D01*
X016983Y004867D01*
X016806Y004794D01*
X016671Y004659D01*
X016611Y004513D01*
X016536Y004693D01*
X016384Y004845D01*
X016186Y004927D01*
X015971Y004927D01*
X015957Y004921D01*
X015558Y005320D01*
X015409Y005382D01*
X015248Y005382D01*
X007156Y005382D01*
X008971Y007197D01*
X008974Y007197D01*
X009150Y007270D01*
X009285Y007405D01*
X009358Y007582D01*
X009358Y007773D01*
X009285Y007949D01*
X009150Y008084D01*
X008974Y008157D01*
X008783Y008157D01*
X008606Y008084D01*
X008471Y007949D01*
X008398Y007773D01*
X008398Y007770D01*
X005586Y004957D01*
X005583Y004957D01*
X005406Y004884D01*
X005271Y004749D01*
X005198Y004573D01*
X005198Y004482D01*
X003883Y004482D01*
X003883Y005340D01*
X004078Y005535D01*
X004346Y005267D01*
X004810Y005267D01*
X005138Y005595D01*
X005138Y006059D01*
X004870Y006327D01*
X005138Y006595D01*
X005138Y007059D01*
X004870Y007327D01*
X005138Y007595D01*
X005138Y008059D01*
X004810Y008387D01*
X004346Y008387D01*
X004036Y008077D01*
X003786Y008327D01*
X003579Y008327D01*
X003579Y007827D01*
X003578Y007827D01*
X003078Y007827D01*
X003078Y007620D01*
X003329Y007369D01*
X003125Y007165D01*
X003024Y007207D01*
X002833Y007207D01*
X002656Y007134D01*
X002521Y006999D01*
X002448Y006823D01*
X002448Y006632D01*
X002521Y006455D01*
X002523Y006453D01*
X002523Y004651D01*
X002521Y004649D01*
X002448Y004473D01*
X002448Y004282D01*
X002521Y004105D01*
X002656Y003970D01*
X002722Y003943D01*
X002597Y003819D01*
X002595Y003818D01*
X002546Y003767D01*
X002505Y003767D01*
X002188Y003451D01*
X002188Y003160D01*
X001396Y002367D01*
X001255Y002367D01*
X001213Y002326D01*
X001213Y003413D01*
X001280Y003347D01*
X001478Y003347D01*
X001478Y003827D01*
X001479Y003827D01*
X001479Y003827D01*
X001958Y003827D01*
X001958Y003628D01*
X001677Y003347D01*
X001479Y003347D01*
X001479Y003827D01*
X001958Y003827D01*
X001958Y004026D01*
X001677Y004307D01*
X001479Y004307D01*
X001479Y003827D01*
X001478Y003827D01*
X001478Y004307D01*
X001280Y004307D01*
X001213Y004241D01*
X001213Y004857D01*
X001428Y004857D01*
X001428Y005377D01*
X001429Y005377D01*
X001429Y005377D01*
X002248Y005377D01*
X002248Y005274D01*
X002169Y005083D01*
X002023Y004936D01*
X001832Y004857D01*
X001429Y004857D01*
X001429Y005377D01*
X002248Y005377D01*
X002248Y005481D01*
X002169Y005672D01*
X002023Y005818D01*
X001880Y005877D01*
X002023Y005936D01*
X002169Y006083D01*
X002248Y006274D01*
X002248Y006377D01*
X001429Y006377D01*
X001429Y006377D01*
X002248Y006377D01*
X002248Y006481D01*
X002169Y006672D01*
X002023Y006818D01*
X001958Y006845D01*
X002057Y006885D01*
X002220Y007049D01*
X002308Y007262D01*
X002308Y007492D01*
X002220Y007706D01*
X002057Y007869D01*
X002037Y007877D01*
X002057Y007885D01*
X002220Y008049D01*
X002308Y008262D01*
X002308Y008492D01*
X002220Y008706D01*
X002104Y008822D01*
X015405Y008822D01*
X015406Y008820D01*
X015583Y008747D01*
X015774Y008747D01*
X015950Y008820D01*
X016085Y008955D01*
X016158Y009132D01*
X016158Y009323D01*
X016132Y009387D01*
X016174Y009387D01*
X016350Y009460D01*
X016485Y009595D01*
X016546Y009742D01*
X016621Y009561D01*
X016773Y009409D01*
X016971Y009327D01*
X017186Y009327D01*
X017384Y009409D01*
X017536Y009561D01*
X017578Y009663D01*
X017621Y009561D01*
X017773Y009409D01*
X017971Y009327D01*
X018186Y009327D01*
X018384Y009409D01*
X018536Y009561D01*
X018578Y009663D01*
X018621Y009561D01*
X018773Y009409D01*
X018971Y009327D01*
X019186Y009327D01*
X019384Y009409D01*
X019536Y009561D01*
X019578Y009663D01*
X019621Y009561D01*
X019773Y009409D01*
X019971Y009327D01*
X020186Y009327D01*
X020200Y009333D01*
X021751Y007782D01*
X021557Y007976D02*
X009258Y007976D01*
X009358Y007738D02*
X016510Y007738D01*
X016359Y007499D02*
X009324Y007499D01*
X009127Y007260D02*
X016357Y007260D01*
X016505Y007022D02*
X008796Y007022D01*
X008557Y006783D02*
X017548Y006783D01*
X017682Y006545D02*
X008319Y006545D01*
X008080Y006306D02*
X019527Y006306D01*
X019857Y006068D02*
X007842Y006068D01*
X007603Y005829D02*
X020188Y005829D01*
X020518Y005591D02*
X007365Y005591D01*
X006458Y005829D02*
X005138Y005829D01*
X005130Y006068D02*
X006696Y006068D01*
X006935Y006306D02*
X004891Y006306D01*
X005088Y006545D02*
X007173Y006545D01*
X007412Y006783D02*
X005138Y006783D01*
X005138Y007022D02*
X007651Y007022D01*
X007889Y007260D02*
X004937Y007260D01*
X005042Y007499D02*
X008128Y007499D01*
X008366Y007738D02*
X005138Y007738D01*
X005138Y007976D02*
X008499Y007976D01*
X004983Y008215D02*
X021318Y008215D01*
X021080Y008453D02*
X002308Y008453D01*
X002226Y008692D02*
X020841Y008692D01*
X020602Y008930D02*
X016060Y008930D01*
X016158Y009169D02*
X020364Y009169D01*
X019777Y009407D02*
X019380Y009407D01*
X019571Y009646D02*
X019586Y009646D01*
X018777Y009407D02*
X018380Y009407D01*
X018571Y009646D02*
X018586Y009646D01*
X017777Y009407D02*
X017380Y009407D01*
X017571Y009646D02*
X017586Y009646D01*
X016777Y009407D02*
X016223Y009407D01*
X016506Y009646D02*
X016586Y009646D01*
X016079Y010127D02*
X016078Y010127D01*
X016078Y010867D01*
X015983Y010867D01*
X015806Y010794D01*
X015671Y010659D01*
X015611Y010513D01*
X015536Y010693D01*
X015483Y010746D01*
X015483Y011412D01*
X015570Y011499D01*
X015611Y011597D01*
X015638Y011533D01*
X015784Y011386D01*
X015975Y011307D01*
X016078Y011307D01*
X016078Y012127D01*
X016079Y012127D01*
X016079Y011307D01*
X016182Y011307D01*
X016373Y011386D01*
X016519Y011533D01*
X016546Y011597D01*
X016587Y011499D01*
X016673Y011412D01*
X016673Y010746D01*
X016621Y010693D01*
X016546Y010513D01*
X016485Y010659D01*
X016350Y010794D01*
X016174Y010867D01*
X016079Y010867D01*
X016079Y010127D01*
X016078Y010362D02*
X016079Y010362D01*
X016078Y010600D02*
X016079Y010600D01*
X016510Y010600D02*
X016582Y010600D01*
X016673Y010839D02*
X016243Y010839D01*
X016079Y010839D02*
X016078Y010839D01*
X015914Y010839D02*
X015483Y010839D01*
X015483Y011077D02*
X016673Y011077D01*
X016673Y011316D02*
X016203Y011316D01*
X016079Y011316D02*
X016078Y011316D01*
X015954Y011316D02*
X015483Y011316D01*
X015593Y011554D02*
X015629Y011554D01*
X016078Y011554D02*
X016079Y011554D01*
X016528Y011554D02*
X016564Y011554D01*
X016079Y011793D02*
X016078Y011793D01*
X016078Y012031D02*
X016079Y012031D01*
X015647Y010600D02*
X015575Y010600D01*
X004174Y008215D02*
X003898Y008215D01*
X003579Y008215D02*
X003578Y008215D01*
X003578Y008327D02*
X003371Y008327D01*
X003078Y008034D01*
X003078Y007827D01*
X003578Y007827D01*
X003578Y007827D01*
X003578Y008327D01*
X003259Y008215D02*
X002289Y008215D01*
X002148Y007976D02*
X003078Y007976D01*
X003078Y007738D02*
X002188Y007738D01*
X002306Y007499D02*
X003199Y007499D01*
X003220Y007260D02*
X002308Y007260D01*
X002193Y007022D02*
X002544Y007022D01*
X002448Y006783D02*
X002057Y006783D01*
X002222Y006545D02*
X002484Y006545D01*
X002523Y006306D02*
X002248Y006306D01*
X002154Y006068D02*
X002523Y006068D01*
X002523Y005829D02*
X001996Y005829D01*
X001429Y005829D02*
X001428Y005829D01*
X001429Y005897D02*
X001429Y006377D01*
X001428Y006377D01*
X001428Y005897D01*
X001428Y005377D01*
X001429Y005377D01*
X001429Y005897D01*
X001428Y006068D02*
X001429Y006068D01*
X001428Y006306D02*
X001429Y006306D01*
X001428Y005591D02*
X001429Y005591D01*
X001428Y005352D02*
X001429Y005352D01*
X001428Y005114D02*
X001429Y005114D01*
X001428Y004875D02*
X001429Y004875D01*
X001875Y004875D02*
X002523Y004875D01*
X002516Y004636D02*
X001213Y004636D01*
X001213Y004398D02*
X002448Y004398D01*
X002499Y004159D02*
X001825Y004159D01*
X001479Y004159D02*
X001478Y004159D01*
X001478Y003921D02*
X001479Y003921D01*
X001958Y003921D02*
X002699Y003921D01*
X002420Y003682D02*
X001958Y003682D01*
X001479Y003682D02*
X001478Y003682D01*
X001478Y003444D02*
X001479Y003444D01*
X001774Y003444D02*
X002188Y003444D01*
X002188Y003205D02*
X001213Y003205D01*
X001213Y002967D02*
X001995Y002967D01*
X001757Y002728D02*
X001213Y002728D01*
X001213Y002490D02*
X001518Y002490D01*
X003983Y002490D02*
X004812Y002490D01*
X004880Y002557D02*
X004598Y002276D01*
X004598Y002077D01*
X004598Y001878D01*
X004678Y001799D01*
X003964Y001799D01*
X004018Y001853D01*
X004018Y002301D01*
X003983Y002336D01*
X003983Y002718D01*
X004268Y003003D01*
X004268Y003451D01*
X004047Y003672D01*
X004560Y003672D01*
X004338Y003451D01*
X004338Y003003D01*
X004655Y002687D01*
X004996Y002687D01*
X005126Y002557D01*
X005079Y002557D01*
X005079Y002077D01*
X005078Y002077D01*
X004598Y002077D01*
X005078Y002077D01*
X005078Y002077D01*
X005078Y002557D01*
X004880Y002557D01*
X005078Y002490D02*
X005079Y002490D01*
X004614Y002728D02*
X003993Y002728D01*
X004232Y002967D02*
X004375Y002967D01*
X004338Y003205D02*
X004268Y003205D01*
X004268Y003444D02*
X004338Y003444D01*
X004598Y002251D02*
X004018Y002251D01*
X004018Y002013D02*
X004598Y002013D01*
X005078Y002251D02*
X005079Y002251D01*
X005225Y004636D02*
X003883Y004636D01*
X003883Y004875D02*
X005398Y004875D01*
X005742Y005114D02*
X003883Y005114D01*
X003895Y005352D02*
X004261Y005352D01*
X004895Y005352D02*
X005981Y005352D01*
X006219Y005591D02*
X005134Y005591D01*
X002523Y005591D02*
X002203Y005591D01*
X002248Y005352D02*
X002523Y005352D01*
X002523Y005114D02*
X002182Y005114D01*
X003578Y007976D02*
X003579Y007976D01*
X015481Y005352D02*
X018676Y005352D01*
X018392Y005114D02*
X015765Y005114D01*
X016311Y004875D02*
X017845Y004875D01*
X017597Y004636D02*
X017495Y004636D01*
X017079Y004636D02*
X017078Y004636D01*
X016662Y004636D02*
X016560Y004636D01*
X017078Y004398D02*
X017079Y004398D01*
X017078Y004159D02*
X017079Y004159D01*
X017078Y003921D02*
X017079Y003921D01*
X017078Y003682D02*
X017079Y003682D01*
X016635Y003682D02*
X016586Y003682D01*
X016483Y003444D02*
X016846Y003444D01*
X017078Y003444D02*
X017079Y003444D01*
X017311Y003444D02*
X017738Y003444D01*
X017570Y003682D02*
X017521Y003682D01*
X018419Y003444D02*
X018738Y003444D01*
X019419Y003444D02*
X019673Y003444D01*
X019673Y003205D02*
X016483Y003205D01*
X016483Y002967D02*
X016866Y002967D01*
X017291Y002967D02*
X019673Y002967D01*
X019575Y002728D02*
X019513Y002728D01*
X019079Y002728D02*
X019078Y002728D01*
X019078Y002490D02*
X019079Y002490D01*
X018644Y002728D02*
X018513Y002728D01*
X018079Y002728D02*
X018078Y002728D01*
X018078Y002490D02*
X018079Y002490D01*
X017644Y002728D02*
X017581Y002728D01*
X018078Y002251D02*
X018079Y002251D01*
X019078Y002251D02*
X019079Y002251D01*
X034779Y002013D02*
X035602Y002013D01*
X036445Y005352D02*
X037790Y005352D01*
D24*
X033178Y006327D03*
X032478Y007227D03*
X037378Y007427D03*
X028178Y010077D03*
X026428Y008327D03*
X023928Y007477D03*
X024278Y006977D03*
X022378Y007027D03*
X021228Y005577D03*
X018028Y006877D03*
X016828Y007377D03*
X015678Y009227D03*
X008878Y007677D03*
X002928Y006727D03*
X005678Y004477D03*
X002928Y004377D03*
M02*
