%
M48
M72
T01C0.0240
T02C0.0320
T03C0.0360
T04C0.0390
T05C0.0400
T06C0.0440
T07C0.0590
T08C0.1260
%
T01
X2928Y4377
X5678Y4477
X2928Y6727
X8878Y7677
X15678Y9227
X16828Y7377
X18028Y6877
X21228Y5577
X22378Y7027
X23928Y7477
X24278Y6977
X26428Y8327
X28178Y10077
X32478Y7227
X33178Y6327
X37378Y7427
T02
X1478Y1827
X2478Y2077
X3478Y2077
X5078Y2077
X6078Y2077
X5878Y3227
X4878Y3227
X3728Y3227
X2728Y3227
X1478Y3827
X7078Y4127
X8078Y4127
X9078Y4127
X10078Y4127
X11078Y4127
X12078Y4127
X13078Y4127
X14078Y4127
X15078Y4127
X16078Y4127
X17078Y4127
X18078Y4127
X19078Y4127
X20078Y4127
X21078Y4127
X22078Y4127
X23078Y4127
X24078Y4127
X25078Y4127
X26078Y4127
X28378Y4977
X28378Y6877
X33628Y7377
X36628Y7377
X38078Y6877
X36078Y5877
X36078Y4877
X38078Y4877
X38078Y3927
X36078Y3377
X36078Y2377
X38078Y1927
X28878Y2377
X27878Y2377
X27778Y8877
X28778Y8877
X26078Y10127
X25078Y10127
X24078Y10127
X23078Y10127
X22078Y10127
X21078Y10127
X20078Y10127
X19078Y10127
X18078Y10127
X17078Y10127
X16078Y10127
X15078Y10127
X14078Y10127
X13078Y10127
X12078Y10127
X11078Y10127
X10078Y10127
X9078Y10127
X8078Y10127
X7078Y10127
X4628Y10577
X2628Y10577
T03
X3578Y7827
X4578Y7827
X4578Y6827
X3578Y6827
X3578Y5827
X4578Y5827
X30878Y5777
X31878Y5777
X31878Y4777
X30878Y4777
X30878Y3777
X31878Y3777
X31878Y6777
X30878Y6777
X30878Y7777
X31878Y7777
T04
X39628Y5127
X39628Y4127
X39628Y3127
T05
X26078Y2127
X25078Y2127
X24078Y2127
X23078Y2127
X22078Y2127
X21078Y2127
X20078Y2127
X19078Y2127
X18078Y2127
X17078Y2127
X16078Y2127
X15078Y2127
X14078Y2127
X13078Y2127
X12078Y2127
X11078Y2127
X10078Y2127
X9078Y2127
X8078Y2127
X7078Y2127
X1428Y5377
X1428Y6377
X1428Y7377
X1428Y8377
X1428Y9377
X1428Y10377
X5778Y10477
X5778Y11477
X7078Y12127
X8078Y12127
X9078Y12127
X10078Y12127
X11078Y12127
X12078Y12127
X13078Y12127
X14078Y12127
X15078Y12127
X16078Y12127
X17078Y12127
X18078Y12127
X19078Y12127
X20078Y12127
X21078Y12127
X22078Y12127
X23078Y12127
X24078Y12127
X25078Y12127
X26078Y12127
X27078Y12127
X28078Y12127
X34038Y11407
X35818Y11407
X35818Y8847
X34038Y8847
T06
X34228Y6277
X34228Y2277
T07
X32605Y11201
X31034Y11205
X29463Y11205
T08
X37235Y9927
X39597Y9927
X38396Y11856
M30
