G75*
G70*
%OFA0B0*%
%FSLAX24Y24*%
%IPPOS*%
%LPD*%
%AMOC8*
5,1,8,0,0,1.08239X$1,22.5*
%
%ADD10C,0.0000*%
%ADD11C,0.0030*%
%ADD12C,0.0020*%
%ADD13C,0.0040*%
%ADD14C,0.0160*%
%ADD15C,0.0010*%
%ADD16C,0.0060*%
%ADD17C,0.0070*%
%ADD18C,0.0240*%
%ADD19R,0.0100X0.0240*%
%ADD20C,0.0050*%
%ADD21R,0.0200X0.0200*%
%ADD22C,0.0100*%
%ADD23C,0.0120*%
%ADD24R,0.1000X0.0200*%
%ADD25C,0.0300*%
%ADD26R,0.0300X0.0750*%
%ADD27C,0.0080*%
D10*
X000693Y001279D02*
X000693Y012975D01*
X040663Y012975D01*
X040663Y001279D01*
X000693Y001279D01*
D11*
X000955Y002947D02*
X000893Y003009D01*
X000893Y003132D01*
X000955Y003194D01*
X000955Y003315D02*
X000893Y003377D01*
X000893Y003500D01*
X000955Y003562D01*
X001202Y003562D01*
X001264Y003500D01*
X001264Y003377D01*
X001202Y003315D01*
X001202Y003194D02*
X001264Y003132D01*
X001264Y003009D01*
X001202Y002947D01*
X001140Y002947D01*
X001079Y003009D01*
X001017Y002947D01*
X000955Y002947D01*
X001079Y003009D02*
X001079Y003070D01*
X001093Y004442D02*
X001239Y004442D01*
X001287Y004490D01*
X001287Y004539D01*
X001239Y004587D01*
X001093Y004587D01*
X001093Y004442D02*
X001093Y004732D01*
X001239Y004732D01*
X001287Y004684D01*
X001287Y004636D01*
X001239Y004587D01*
X001388Y004442D02*
X001582Y004442D01*
X001683Y004442D02*
X001683Y004732D01*
X001731Y004587D02*
X001876Y004442D01*
X001683Y004539D02*
X001876Y004732D01*
X001388Y004732D02*
X001388Y004442D01*
X007643Y005992D02*
X007643Y006239D01*
X007705Y006239D01*
X007767Y006177D01*
X007829Y006239D01*
X007890Y006177D01*
X007890Y005992D01*
X007767Y005992D02*
X007767Y006177D01*
X008012Y006054D02*
X008073Y006116D01*
X008259Y006116D01*
X008259Y006177D02*
X008259Y005992D01*
X008073Y005992D01*
X008012Y006054D01*
X008197Y006239D02*
X008259Y006177D01*
X008197Y006239D02*
X008073Y006239D01*
X008380Y006362D02*
X008380Y005992D01*
X008380Y006116D02*
X008565Y006239D01*
X008687Y006177D02*
X008749Y006239D01*
X008872Y006239D01*
X008934Y006177D01*
X008934Y006116D01*
X008687Y006116D01*
X008687Y006177D02*
X008687Y006054D01*
X008749Y005992D01*
X008872Y005992D01*
X009055Y005992D02*
X009117Y005992D01*
X009117Y006054D01*
X009055Y006054D01*
X009055Y005992D01*
X009239Y005992D02*
X009425Y005992D01*
X009486Y006054D01*
X009425Y006116D01*
X009301Y006116D01*
X009239Y006177D01*
X009301Y006239D01*
X009486Y006239D01*
X009669Y006239D02*
X009793Y006239D01*
X009855Y006177D01*
X009855Y005992D01*
X009669Y005992D01*
X009608Y006054D01*
X009669Y006116D01*
X009855Y006116D01*
X009976Y006239D02*
X009976Y005992D01*
X010223Y005992D02*
X010223Y006177D01*
X010161Y006239D01*
X009976Y006239D01*
X010344Y006177D02*
X010344Y006054D01*
X010406Y005992D01*
X010591Y005992D01*
X010591Y005930D02*
X010591Y006239D01*
X010406Y006239D01*
X010344Y006177D01*
X010713Y006239D02*
X010713Y006054D01*
X010774Y005992D01*
X010959Y005992D01*
X010959Y006239D01*
X011081Y006239D02*
X011143Y006239D01*
X011143Y005992D01*
X011204Y005992D02*
X011081Y005992D01*
X011326Y005992D02*
X011326Y006239D01*
X011512Y006239D01*
X011573Y006177D01*
X011573Y005992D01*
X011695Y006054D02*
X011756Y005992D01*
X011880Y005992D01*
X011942Y006054D01*
X011942Y006177D01*
X011880Y006239D01*
X011756Y006239D01*
X011695Y006177D01*
X011695Y006054D01*
X012063Y006054D02*
X012125Y006054D01*
X012125Y005992D01*
X012063Y005992D01*
X012063Y006054D01*
X012247Y006054D02*
X012309Y005992D01*
X012494Y005992D01*
X012615Y006054D02*
X012677Y005992D01*
X012862Y005992D01*
X012984Y005992D02*
X013231Y006362D01*
X013352Y006239D02*
X013476Y006362D01*
X013476Y005992D01*
X013599Y005992D02*
X013352Y005992D01*
X013720Y005992D02*
X013782Y005992D01*
X013782Y006054D01*
X013720Y006054D01*
X013720Y005992D01*
X013905Y006054D02*
X014151Y006301D01*
X014151Y006054D01*
X014090Y005992D01*
X013966Y005992D01*
X013905Y006054D01*
X013905Y006301D01*
X013966Y006362D01*
X014090Y006362D01*
X014151Y006301D01*
X014201Y006692D02*
X014078Y006692D01*
X014016Y006754D01*
X014016Y006877D01*
X014078Y006939D01*
X014201Y006939D01*
X014263Y006877D01*
X014263Y006816D01*
X014016Y006816D01*
X013895Y006877D02*
X013833Y006939D01*
X013709Y006939D01*
X013648Y006877D01*
X013648Y006754D01*
X013709Y006692D01*
X013833Y006692D01*
X013895Y006754D01*
X013895Y006877D01*
X013526Y006877D02*
X013279Y006877D01*
X013279Y006692D02*
X013279Y007062D01*
X013526Y007062D02*
X013526Y006692D01*
X012790Y006692D02*
X012790Y006877D01*
X012728Y006939D01*
X012604Y006939D01*
X012543Y006877D01*
X012421Y006939D02*
X012236Y006939D01*
X012174Y006877D01*
X012174Y006754D01*
X012236Y006692D01*
X012421Y006692D01*
X012543Y006692D02*
X012543Y007062D01*
X012053Y006877D02*
X011991Y006939D01*
X011868Y006939D01*
X011868Y006816D02*
X012053Y006816D01*
X012053Y006877D02*
X012053Y006692D01*
X011868Y006692D01*
X011806Y006754D01*
X011868Y006816D01*
X011685Y006692D02*
X011438Y006692D01*
X011438Y006754D01*
X011685Y007001D01*
X011685Y007062D01*
X011438Y007062D01*
X010947Y006939D02*
X010947Y006877D01*
X010885Y006877D01*
X010885Y006939D01*
X010947Y006939D01*
X010764Y006939D02*
X010764Y006630D01*
X010702Y006569D01*
X010641Y006569D01*
X010579Y006692D02*
X010764Y006692D01*
X010885Y006692D02*
X010885Y006754D01*
X010947Y006754D01*
X010947Y006692D01*
X010885Y006692D01*
X010579Y006692D02*
X010517Y006754D01*
X010517Y006939D01*
X010396Y006939D02*
X010334Y006877D01*
X010149Y006877D01*
X010149Y006692D02*
X010334Y006692D01*
X010396Y006754D01*
X010396Y006816D01*
X010334Y006877D01*
X010396Y006939D02*
X010396Y007001D01*
X010334Y007062D01*
X010149Y007062D01*
X010149Y006692D01*
X009659Y006692D02*
X009659Y006877D01*
X009597Y006939D01*
X009412Y006939D01*
X009412Y006692D01*
X009291Y006692D02*
X009106Y006692D01*
X009044Y006754D01*
X009044Y006877D01*
X009106Y006939D01*
X009291Y006939D01*
X009291Y006630D01*
X009229Y006569D01*
X009167Y006569D01*
X008922Y006692D02*
X008798Y006692D01*
X008860Y006692D02*
X008860Y006939D01*
X008798Y006939D01*
X008677Y006939D02*
X008492Y006939D01*
X008430Y006877D01*
X008492Y006816D01*
X008615Y006816D01*
X008677Y006754D01*
X008615Y006692D01*
X008430Y006692D01*
X008309Y006816D02*
X008062Y006816D01*
X008062Y006877D02*
X008123Y006939D01*
X008247Y006939D01*
X008309Y006877D01*
X008309Y006816D01*
X008247Y006692D02*
X008123Y006692D01*
X008062Y006754D01*
X008062Y006877D01*
X007940Y006754D02*
X007940Y007001D01*
X007879Y007062D01*
X007693Y007062D01*
X007693Y006692D01*
X007879Y006692D01*
X007940Y006754D01*
X008860Y007062D02*
X008860Y007124D01*
X011143Y006424D02*
X011143Y006362D01*
X012247Y006177D02*
X012247Y006054D01*
X012247Y006177D02*
X012309Y006239D01*
X012494Y006239D01*
X012615Y006177D02*
X012677Y006239D01*
X012862Y006239D01*
X012615Y006177D02*
X012615Y006054D01*
X014384Y006692D02*
X014384Y007062D01*
X014569Y006939D02*
X014384Y006816D01*
X014569Y006692D01*
X014691Y006754D02*
X014691Y006877D01*
X014753Y006939D01*
X014876Y006939D01*
X014938Y006877D01*
X014938Y006816D01*
X014691Y006816D01*
X014691Y006754D02*
X014753Y006692D01*
X014876Y006692D01*
X015059Y006692D02*
X015059Y006939D01*
X015245Y006939D01*
X015306Y006877D01*
X015306Y006692D01*
X010591Y005930D02*
X010529Y005869D01*
X010468Y005869D01*
X008565Y005992D02*
X008380Y006116D01*
X004573Y008987D02*
X004524Y008939D01*
X004379Y008939D01*
X004379Y008842D02*
X004379Y009132D01*
X004524Y009132D01*
X004573Y009084D01*
X004573Y008987D01*
X004278Y008939D02*
X004278Y008890D01*
X004230Y008842D01*
X004133Y008842D01*
X004084Y008890D01*
X003983Y008890D02*
X003935Y008842D01*
X003838Y008842D01*
X003790Y008890D01*
X003790Y009084D01*
X003838Y009132D01*
X003935Y009132D01*
X003983Y009084D01*
X004084Y009084D02*
X004084Y009036D01*
X004133Y008987D01*
X004230Y008987D01*
X004278Y008939D01*
X004278Y009084D02*
X004230Y009132D01*
X004133Y009132D01*
X004084Y009084D01*
X003690Y009132D02*
X003593Y009132D01*
X003642Y009132D02*
X003642Y008842D01*
X003690Y008842D02*
X003593Y008842D01*
X003383Y010042D02*
X003286Y010042D01*
X003238Y010090D01*
X003238Y010139D01*
X003286Y010187D01*
X003383Y010187D01*
X003432Y010139D01*
X003432Y010090D01*
X003383Y010042D01*
X003383Y010187D02*
X003432Y010236D01*
X003432Y010284D01*
X003383Y010332D01*
X003286Y010332D01*
X003238Y010284D01*
X003238Y010236D01*
X003286Y010187D01*
X003137Y010090D02*
X003089Y010042D01*
X002992Y010042D01*
X002943Y010090D01*
X002943Y010284D01*
X002992Y010332D01*
X003089Y010332D01*
X003137Y010284D01*
X003164Y010822D02*
X002970Y010822D01*
X003067Y010822D02*
X003067Y011112D01*
X002970Y011016D01*
X003265Y011064D02*
X003265Y010870D01*
X003458Y011064D01*
X003458Y010870D01*
X003410Y010822D01*
X003313Y010822D01*
X003265Y010870D01*
X003559Y010870D02*
X003753Y011064D01*
X003753Y010870D01*
X003705Y010822D01*
X003608Y010822D01*
X003559Y010870D01*
X003559Y011064D01*
X003608Y011112D01*
X003705Y011112D01*
X003753Y011064D01*
X003854Y011016D02*
X003999Y011016D01*
X004048Y010967D01*
X004048Y010822D01*
X004149Y010822D02*
X004149Y011112D01*
X004342Y011112D01*
X004246Y010967D02*
X004149Y010967D01*
X003854Y011016D02*
X003854Y010822D01*
X003458Y011064D02*
X003410Y011112D01*
X003313Y011112D01*
X003265Y011064D01*
X001826Y011092D02*
X001826Y011382D01*
X001633Y011382D02*
X001826Y011092D01*
X001633Y011092D02*
X001633Y011382D01*
X001532Y011334D02*
X001532Y011237D01*
X001483Y011189D01*
X001338Y011189D01*
X001435Y011189D02*
X001532Y011092D01*
X001338Y011092D02*
X001338Y011382D01*
X001483Y011382D01*
X001532Y011334D01*
X001237Y011334D02*
X001189Y011382D01*
X001092Y011382D01*
X001043Y011334D01*
X001043Y011140D01*
X001092Y011092D01*
X001189Y011092D01*
X001237Y011140D01*
X001237Y011237D01*
X001140Y011237D01*
X001167Y011742D02*
X001290Y011989D01*
X001412Y011989D02*
X001535Y012112D01*
X001535Y011742D01*
X001412Y011742D02*
X001659Y011742D01*
X001780Y011742D02*
X001842Y011742D01*
X001842Y011804D01*
X001780Y011804D01*
X001780Y011742D01*
X001964Y011804D02*
X002211Y012051D01*
X002211Y011804D01*
X002149Y011742D01*
X002026Y011742D01*
X001964Y011804D01*
X001964Y012051D01*
X002026Y012112D01*
X002149Y012112D01*
X002211Y012051D01*
X001167Y011742D02*
X001043Y011989D01*
X006698Y011200D02*
X006698Y010954D01*
X006945Y011200D01*
X006883Y011262D01*
X006760Y011262D01*
X006698Y011200D01*
X006945Y011200D02*
X006945Y010954D01*
X006883Y010892D01*
X006760Y010892D01*
X006698Y010954D01*
X007067Y011015D02*
X007190Y010892D01*
X007313Y011015D01*
X007313Y011262D01*
X007313Y011077D02*
X007067Y011077D01*
X007067Y011015D02*
X007067Y011262D01*
X007698Y011262D02*
X007945Y011262D01*
X008067Y011262D02*
X008067Y011015D01*
X008190Y010892D01*
X008313Y011015D01*
X008313Y011262D01*
X008313Y011077D02*
X008067Y011077D01*
X007945Y011015D02*
X007822Y010892D01*
X007822Y011262D01*
X008698Y011262D02*
X008945Y011262D01*
X008698Y011015D01*
X008698Y010954D01*
X008760Y010892D01*
X008883Y010892D01*
X008945Y010954D01*
X009067Y011015D02*
X009190Y010892D01*
X009313Y011015D01*
X009313Y011262D01*
X009313Y011077D02*
X009067Y011077D01*
X009067Y011015D02*
X009067Y011262D01*
X009698Y011200D02*
X009698Y011139D01*
X009760Y011077D01*
X009822Y011077D01*
X009760Y011077D02*
X009698Y011015D01*
X009698Y010954D01*
X009760Y010892D01*
X009883Y010892D01*
X009945Y010954D01*
X010067Y011015D02*
X010067Y011262D01*
X009945Y011200D02*
X009883Y011262D01*
X009760Y011262D01*
X009698Y011200D01*
X010067Y011077D02*
X010313Y011077D01*
X010313Y011015D02*
X010190Y010892D01*
X010067Y011015D01*
X010313Y011015D02*
X010313Y011262D01*
X010698Y011077D02*
X010945Y011077D01*
X010760Y010892D01*
X010760Y011262D01*
X011067Y011262D02*
X011067Y011015D01*
X011190Y010892D01*
X011313Y011015D01*
X011313Y011262D01*
X011313Y011077D02*
X011067Y011077D01*
X011698Y011077D02*
X011760Y011015D01*
X011822Y011015D01*
X011945Y011077D01*
X011945Y010892D01*
X011698Y010892D01*
X012067Y011015D02*
X012067Y011262D01*
X011945Y011200D02*
X011883Y011262D01*
X011760Y011262D01*
X011698Y011200D01*
X011698Y011077D01*
X012067Y011077D02*
X012313Y011077D01*
X012313Y011015D02*
X012190Y010892D01*
X012067Y011015D01*
X012313Y011015D02*
X012313Y011262D01*
X012698Y011200D02*
X012698Y011139D01*
X012760Y011077D01*
X012945Y011077D01*
X012945Y011200D01*
X012883Y011262D01*
X012760Y011262D01*
X012698Y011200D01*
X012822Y010954D02*
X012945Y011077D01*
X013067Y011077D02*
X013313Y011077D01*
X013313Y011015D02*
X013190Y010892D01*
X013067Y011015D01*
X013067Y011262D01*
X013313Y011262D02*
X013313Y011015D01*
X013698Y010954D02*
X013698Y010892D01*
X013945Y010892D01*
X014067Y011015D02*
X014067Y011262D01*
X013945Y011262D02*
X013945Y011200D01*
X013698Y010954D01*
X014067Y011015D02*
X014190Y010892D01*
X014313Y011015D01*
X014313Y011262D01*
X014313Y011077D02*
X014067Y011077D01*
X012822Y010954D02*
X012698Y010892D01*
X015681Y011020D02*
X015729Y010972D01*
X015874Y010972D01*
X015874Y011262D01*
X015729Y011262D01*
X015681Y011214D01*
X015681Y011020D01*
X015975Y010972D02*
X015975Y011262D01*
X016169Y010972D01*
X016169Y011262D01*
X016270Y011214D02*
X016270Y011117D01*
X016367Y011117D01*
X016463Y011020D02*
X016463Y011214D01*
X016415Y011262D01*
X016318Y011262D01*
X016270Y011214D01*
X016698Y011189D02*
X016698Y010942D01*
X016945Y010942D02*
X016945Y011189D01*
X016822Y011312D01*
X016698Y011189D01*
X017067Y011250D02*
X017128Y011312D01*
X017252Y011312D01*
X017313Y011250D01*
X017313Y011127D02*
X017190Y011065D01*
X017128Y011065D01*
X017067Y011127D01*
X017067Y011250D01*
X017313Y011127D02*
X017313Y010942D01*
X017067Y010942D01*
X016463Y011020D02*
X016415Y010972D01*
X016318Y010972D01*
X016270Y011020D01*
X017848Y011004D02*
X017848Y011065D01*
X017910Y011127D01*
X017848Y011189D01*
X017848Y011250D01*
X017910Y011312D01*
X018033Y011312D01*
X018095Y011250D01*
X018217Y011312D02*
X018463Y011312D01*
X018217Y011065D01*
X018217Y011004D01*
X018278Y010942D01*
X018402Y010942D01*
X018463Y011004D01*
X018095Y011004D02*
X018033Y010942D01*
X017910Y010942D01*
X017848Y011004D01*
X017910Y011127D02*
X017972Y011127D01*
X018848Y011065D02*
X018848Y011004D01*
X018910Y010942D01*
X019033Y010942D01*
X019095Y011004D01*
X019217Y011004D02*
X019278Y010942D01*
X019402Y010942D01*
X019463Y011004D01*
X019217Y011004D02*
X019217Y011065D01*
X019463Y011312D01*
X019217Y011312D01*
X019095Y011312D02*
X018848Y011065D01*
X018848Y011312D02*
X019095Y011312D01*
X019848Y011312D02*
X020095Y011312D01*
X020217Y011312D02*
X020463Y011312D01*
X020217Y011065D01*
X020217Y011004D01*
X020278Y010942D01*
X020402Y010942D01*
X020463Y011004D01*
X020095Y011065D02*
X019972Y010942D01*
X019972Y011312D01*
X020848Y011250D02*
X020848Y011004D01*
X021095Y011250D01*
X021033Y011312D01*
X020910Y011312D01*
X020848Y011250D01*
X021095Y011250D02*
X021095Y011004D01*
X021033Y010942D01*
X020910Y010942D01*
X020848Y011004D01*
X021217Y011004D02*
X021217Y011065D01*
X021463Y011312D01*
X021217Y011312D01*
X021217Y011004D02*
X021278Y010942D01*
X021402Y010942D01*
X021463Y011004D01*
X021848Y011004D02*
X021910Y010942D01*
X022033Y010942D01*
X022095Y011004D01*
X022095Y011065D01*
X022033Y011127D01*
X021848Y011127D01*
X021848Y011250D02*
X021848Y011004D01*
X022340Y010942D02*
X022463Y011065D01*
X022340Y010942D02*
X022340Y011312D01*
X022463Y011312D02*
X022217Y011312D01*
X022095Y011250D02*
X022033Y011312D01*
X021910Y011312D01*
X021848Y011250D01*
X022848Y011250D02*
X022910Y011312D01*
X023033Y011312D01*
X023095Y011250D01*
X023095Y011189D01*
X023033Y011127D01*
X022910Y011127D01*
X022848Y011189D01*
X022848Y011250D01*
X022910Y011127D02*
X022848Y011065D01*
X022848Y011004D01*
X022910Y010942D01*
X023033Y010942D01*
X023095Y011004D01*
X023095Y011065D01*
X023033Y011127D01*
X023217Y011312D02*
X023463Y011312D01*
X023340Y011312D02*
X023340Y010942D01*
X023463Y011065D01*
X023848Y011004D02*
X024095Y011250D01*
X024095Y011312D01*
X024217Y011312D02*
X024463Y011312D01*
X024340Y011312D02*
X024340Y010942D01*
X024463Y011065D01*
X024095Y010942D02*
X023848Y010942D01*
X023848Y011004D01*
X024848Y010942D02*
X024972Y011004D01*
X025095Y011127D01*
X024910Y011127D01*
X024848Y011189D01*
X024848Y011250D01*
X024910Y011312D01*
X025033Y011312D01*
X025095Y011250D01*
X025095Y011127D01*
X025217Y011312D02*
X025463Y011312D01*
X025340Y011312D02*
X025340Y010942D01*
X025463Y011065D01*
X025848Y011127D02*
X025848Y011250D01*
X025910Y011312D01*
X026033Y011312D01*
X026095Y011250D01*
X026095Y011127D02*
X025972Y011065D01*
X025910Y011065D01*
X025848Y011127D01*
X025848Y010942D02*
X026095Y010942D01*
X026095Y011127D01*
X026217Y011312D02*
X026463Y011312D01*
X026340Y011312D02*
X026340Y010942D01*
X026463Y011065D01*
X027893Y011056D02*
X028263Y011303D01*
X027893Y011303D01*
X027893Y011056D02*
X028263Y011056D01*
X028263Y010934D02*
X028263Y010810D01*
X028263Y010872D02*
X027893Y010872D01*
X027893Y010810D02*
X027893Y010934D01*
X027893Y010689D02*
X028140Y010689D01*
X028263Y010566D01*
X028140Y010442D01*
X027893Y010442D01*
X034143Y012342D02*
X034390Y012342D01*
X034512Y012342D02*
X034759Y012342D01*
X034759Y012712D01*
X034512Y012712D01*
X034267Y012712D02*
X034267Y012342D01*
X034635Y012527D02*
X034759Y012527D01*
X034880Y012589D02*
X034942Y012527D01*
X035065Y012527D01*
X035127Y012465D01*
X035127Y012404D01*
X035065Y012342D01*
X034942Y012342D01*
X034880Y012404D01*
X035248Y012342D02*
X035495Y012342D01*
X035495Y012712D01*
X035248Y012712D01*
X035127Y012650D02*
X035065Y012712D01*
X034942Y012712D01*
X034880Y012650D01*
X034880Y012589D01*
X035372Y012527D02*
X035495Y012527D01*
X035617Y012527D02*
X035678Y012589D01*
X035863Y012589D01*
X035740Y012589D02*
X035617Y012712D01*
X035863Y012712D02*
X035863Y012342D01*
X035678Y012342D01*
X035617Y012404D01*
X035617Y012527D01*
X033263Y012442D02*
X033263Y012812D01*
X033017Y012812D01*
X032895Y012812D02*
X032648Y012442D01*
X032527Y012442D02*
X032280Y012442D01*
X032403Y012442D02*
X032403Y012812D01*
X032648Y012812D02*
X032895Y012442D01*
X033017Y012442D02*
X033263Y012442D01*
X033263Y012627D02*
X033140Y012627D01*
X029763Y012750D02*
X029763Y012442D01*
X029517Y012442D02*
X029517Y012750D01*
X029578Y012812D01*
X029702Y012812D01*
X029763Y012750D01*
X029395Y012750D02*
X029333Y012812D01*
X029210Y012812D01*
X029148Y012750D01*
X029148Y012689D01*
X029210Y012627D01*
X029333Y012627D01*
X029395Y012565D01*
X029395Y012504D01*
X029333Y012442D01*
X029210Y012442D01*
X029148Y012504D01*
X029027Y012442D02*
X028842Y012442D01*
X028780Y012504D01*
X028780Y012565D01*
X028842Y012627D01*
X029027Y012627D01*
X029027Y012812D02*
X029027Y012442D01*
X028842Y012627D02*
X028780Y012689D01*
X028780Y012750D01*
X028842Y012812D01*
X029027Y012812D01*
X035173Y005630D02*
X035222Y005630D01*
X035415Y005437D01*
X035463Y005437D01*
X035415Y005336D02*
X035463Y005287D01*
X035463Y005190D01*
X035415Y005142D01*
X035222Y005142D01*
X035173Y005190D01*
X035173Y005287D01*
X035222Y005336D01*
X035173Y005437D02*
X035173Y005630D01*
X035173Y003130D02*
X035222Y003033D01*
X035318Y002937D01*
X035318Y003082D01*
X035367Y003130D01*
X035415Y003130D01*
X035463Y003082D01*
X035463Y002985D01*
X035415Y002937D01*
X035318Y002937D01*
X035222Y002836D02*
X035173Y002787D01*
X035173Y002690D01*
X035222Y002642D01*
X035415Y002642D01*
X035463Y002690D01*
X035463Y002787D01*
X035415Y002836D01*
X031471Y002784D02*
X031422Y002832D01*
X031326Y002832D01*
X031277Y002784D01*
X031277Y002590D01*
X031326Y002542D01*
X031422Y002542D01*
X031471Y002590D01*
X031471Y002687D01*
X031374Y002687D01*
X031176Y002687D02*
X030983Y002687D01*
X030983Y002736D02*
X031079Y002832D01*
X031176Y002736D01*
X031176Y002542D01*
X030983Y002542D02*
X030983Y002736D01*
X030882Y002832D02*
X030688Y002832D01*
X030785Y002832D02*
X030785Y002542D01*
X030539Y002590D02*
X030539Y002832D01*
X030587Y002832D02*
X030490Y002832D01*
X030539Y002590D02*
X030490Y002542D01*
X030442Y002542D01*
X030393Y002590D01*
X026309Y003077D02*
X026062Y003077D01*
X026247Y003262D01*
X026247Y002892D01*
X025940Y002892D02*
X025693Y002892D01*
X025817Y002892D02*
X025817Y003262D01*
X025693Y003139D01*
X025309Y003139D02*
X025309Y003201D01*
X025247Y003262D01*
X025123Y003262D01*
X025062Y003201D01*
X025185Y003077D02*
X025247Y003077D01*
X025309Y003016D01*
X025309Y002954D01*
X025247Y002892D01*
X025123Y002892D01*
X025062Y002954D01*
X024940Y002892D02*
X024693Y002892D01*
X024817Y002892D02*
X024817Y003262D01*
X024693Y003139D01*
X024309Y003139D02*
X024309Y003201D01*
X024247Y003262D01*
X024123Y003262D01*
X024062Y003201D01*
X023817Y003262D02*
X023693Y003139D01*
X023817Y003262D02*
X023817Y002892D01*
X023940Y002892D02*
X023693Y002892D01*
X024062Y002892D02*
X024309Y003139D01*
X024309Y002892D02*
X024062Y002892D01*
X023309Y002842D02*
X023062Y002842D01*
X022940Y002842D02*
X022693Y002842D01*
X022817Y002842D02*
X022817Y003212D01*
X022693Y003089D01*
X023062Y003089D02*
X023185Y003212D01*
X023185Y002842D01*
X022309Y002904D02*
X022309Y003151D01*
X022062Y002904D01*
X022123Y002842D01*
X022247Y002842D01*
X022309Y002904D01*
X022309Y003151D02*
X022247Y003212D01*
X022123Y003212D01*
X022062Y003151D01*
X022062Y002904D01*
X021940Y002842D02*
X021693Y002842D01*
X021817Y002842D02*
X021817Y003212D01*
X021693Y003089D01*
X021309Y003139D02*
X021062Y002892D01*
X020817Y002892D02*
X020817Y003262D01*
X020940Y003262D02*
X020693Y003262D01*
X021062Y003139D02*
X021309Y002892D01*
X020309Y002892D02*
X020062Y003139D01*
X019940Y003201D02*
X019940Y003077D01*
X019879Y003016D01*
X019693Y003016D01*
X019817Y003016D02*
X019940Y002892D01*
X020062Y002892D02*
X020309Y003139D01*
X019940Y003201D02*
X019879Y003262D01*
X019693Y003262D01*
X019693Y002892D01*
X017459Y003016D02*
X017335Y002892D01*
X017212Y003016D01*
X017212Y003262D01*
X017090Y003262D02*
X016843Y003262D01*
X016843Y003077D01*
X016967Y003139D01*
X017029Y003139D01*
X017090Y003077D01*
X017090Y002954D01*
X017029Y002892D01*
X016905Y002892D01*
X016843Y002954D01*
X016559Y003016D02*
X016435Y002892D01*
X016312Y003016D01*
X016312Y003262D01*
X016190Y003262D02*
X015943Y003262D01*
X015943Y003077D01*
X016067Y003139D01*
X016129Y003139D01*
X016190Y003077D01*
X016190Y002954D01*
X016129Y002892D01*
X016005Y002892D01*
X015943Y002954D01*
X016559Y003016D02*
X016559Y003262D01*
X017459Y003262D02*
X017459Y003016D01*
X025247Y003077D02*
X025309Y003139D01*
D12*
X023277Y003287D02*
X023130Y003287D01*
X023277Y003434D01*
X023277Y003471D01*
X023240Y003507D01*
X023167Y003507D01*
X023130Y003471D01*
X023056Y003507D02*
X022909Y003287D01*
X023056Y003287D02*
X022909Y003507D01*
X022835Y003507D02*
X022688Y003507D01*
X022762Y003507D02*
X022762Y003287D01*
X022277Y003287D02*
X022130Y003287D01*
X022277Y003434D01*
X022277Y003471D01*
X022240Y003507D01*
X022167Y003507D01*
X022130Y003471D01*
X022056Y003507D02*
X021909Y003287D01*
X021835Y003287D02*
X021762Y003360D01*
X021799Y003360D02*
X021688Y003360D01*
X021688Y003287D02*
X021688Y003507D01*
X021799Y003507D01*
X021835Y003471D01*
X021835Y003397D01*
X021799Y003360D01*
X021909Y003507D02*
X022056Y003287D01*
X021235Y003324D02*
X021235Y003471D01*
X021199Y003507D01*
X021125Y003507D01*
X021088Y003471D01*
X021088Y003434D01*
X021125Y003397D01*
X021235Y003397D01*
X021235Y003324D02*
X021199Y003287D01*
X021125Y003287D01*
X021088Y003324D01*
X020185Y003324D02*
X020149Y003287D01*
X020075Y003287D01*
X020038Y003324D01*
X020038Y003360D01*
X020075Y003397D01*
X020149Y003397D01*
X020185Y003360D01*
X020185Y003324D01*
X020149Y003397D02*
X020185Y003434D01*
X020185Y003471D01*
X020149Y003507D01*
X020075Y003507D01*
X020038Y003471D01*
X020038Y003434D01*
X020075Y003397D01*
X015596Y003134D02*
X015522Y003134D01*
X015559Y003171D02*
X015559Y003024D01*
X015596Y002987D01*
X015448Y003060D02*
X015301Y003060D01*
X015301Y003024D02*
X015301Y003097D01*
X015338Y003134D01*
X015411Y003134D01*
X015448Y003097D01*
X015448Y003060D01*
X015411Y002987D02*
X015338Y002987D01*
X015301Y003024D01*
X015227Y003024D02*
X015190Y003060D01*
X015117Y003060D01*
X015080Y003097D01*
X015117Y003134D01*
X015227Y003134D01*
X015227Y003024D02*
X015190Y002987D01*
X015080Y002987D01*
X015006Y003060D02*
X014859Y003060D01*
X014859Y003024D02*
X014859Y003097D01*
X014896Y003134D01*
X014969Y003134D01*
X015006Y003097D01*
X015006Y003060D01*
X014969Y002987D02*
X014896Y002987D01*
X014859Y003024D01*
X014785Y002987D02*
X014712Y003060D01*
X014749Y003060D02*
X014638Y003060D01*
X014638Y002987D02*
X014638Y003207D01*
X014749Y003207D01*
X014785Y003171D01*
X014785Y003097D01*
X014749Y003060D01*
X006336Y003724D02*
X006299Y003687D01*
X006226Y003687D01*
X006189Y003724D01*
X006115Y003687D02*
X006042Y003760D01*
X006079Y003760D02*
X005968Y003760D01*
X005968Y003687D02*
X005968Y003907D01*
X006079Y003907D01*
X006115Y003871D01*
X006115Y003797D01*
X006079Y003760D01*
X006189Y003871D02*
X006226Y003907D01*
X006299Y003907D01*
X006336Y003871D01*
X006336Y003834D01*
X006299Y003797D01*
X006336Y003760D01*
X006336Y003724D01*
X006299Y003797D02*
X006263Y003797D01*
X005686Y003777D02*
X005539Y003630D01*
X005576Y003667D02*
X005686Y003557D01*
X005539Y003557D02*
X005539Y003777D01*
X005392Y003777D02*
X005392Y003557D01*
X005465Y003557D02*
X005318Y003557D01*
X005318Y003704D02*
X005392Y003777D01*
X004484Y003747D02*
X004337Y003600D01*
X004374Y003637D02*
X004484Y003527D01*
X004337Y003527D02*
X004337Y003747D01*
X004190Y003747D02*
X004116Y003674D01*
X004190Y003747D02*
X004190Y003527D01*
X004263Y003527D02*
X004116Y003527D01*
X003284Y003547D02*
X003137Y003547D01*
X003284Y003694D01*
X003284Y003731D01*
X003248Y003767D01*
X003174Y003767D01*
X003137Y003731D01*
X003063Y003731D02*
X003063Y003657D01*
X003027Y003620D01*
X002916Y003620D01*
X002916Y003547D02*
X002916Y003767D01*
X003027Y003767D01*
X003063Y003731D01*
X002990Y003620D02*
X003063Y003547D01*
X002728Y004227D02*
X005428Y004227D01*
X005428Y006027D01*
X005428Y007627D02*
X005428Y009427D01*
X002728Y009427D01*
X002728Y004227D01*
X003948Y002517D02*
X004169Y002517D01*
X004169Y002407D01*
X004132Y002370D01*
X004059Y002370D01*
X004022Y002407D01*
X004022Y002517D01*
X004488Y002517D02*
X004488Y002407D01*
X004525Y002370D01*
X004672Y002370D01*
X004709Y002407D01*
X004709Y002517D01*
X004488Y002517D01*
X004488Y002296D02*
X004488Y002149D01*
X004488Y002075D02*
X004488Y001965D01*
X004525Y001928D01*
X004562Y001928D01*
X004599Y001965D01*
X004599Y002075D01*
X004709Y002075D02*
X004488Y002075D01*
X004599Y001965D02*
X004635Y001928D01*
X004672Y001928D01*
X004709Y001965D01*
X004709Y002075D01*
X004709Y002149D02*
X004709Y002296D01*
X004488Y002296D01*
X004599Y002296D02*
X004599Y002223D01*
X004169Y002186D02*
X004169Y002259D01*
X004132Y002296D01*
X003985Y002296D01*
X003948Y002259D01*
X003948Y002186D01*
X003985Y002149D01*
X004132Y002149D01*
X004169Y002186D01*
X004169Y002075D02*
X003948Y002075D01*
X004022Y002002D01*
X003948Y001928D01*
X004169Y001928D01*
X004169Y001854D02*
X003948Y001854D01*
X003948Y001707D01*
X003948Y001633D02*
X004169Y001633D01*
X004169Y001523D01*
X004132Y001486D01*
X004059Y001486D01*
X004022Y001523D01*
X004022Y001633D01*
X004022Y001560D02*
X003948Y001486D01*
X004488Y001523D02*
X004525Y001486D01*
X004599Y001486D01*
X004599Y001560D01*
X004672Y001633D02*
X004525Y001633D01*
X004488Y001596D01*
X004488Y001523D01*
X004672Y001486D02*
X004709Y001523D01*
X004709Y001596D01*
X004672Y001633D01*
X004709Y001707D02*
X004525Y001707D01*
X004488Y001744D01*
X004488Y001817D01*
X004525Y001854D01*
X004709Y001854D01*
X004169Y001854D02*
X004169Y001707D01*
X004059Y001781D02*
X004059Y001854D01*
X026848Y010237D02*
X026995Y010237D01*
X027068Y010310D01*
X026995Y010384D01*
X026848Y010384D01*
X026848Y010458D02*
X026848Y010531D01*
X026848Y010495D02*
X027068Y010495D01*
X027068Y010531D02*
X027068Y010458D01*
X027068Y010605D02*
X026848Y010605D01*
X027068Y010752D01*
X026848Y010752D01*
X027248Y010731D02*
X027322Y010805D01*
X027468Y010805D01*
X027468Y010879D02*
X027248Y010879D01*
X027248Y011026D01*
X027248Y011100D02*
X027468Y011100D01*
X027468Y011247D01*
X027358Y011173D02*
X027358Y011100D01*
X027248Y011100D02*
X027248Y011247D01*
X027358Y010952D02*
X027358Y010879D01*
X027358Y010805D02*
X027358Y010658D01*
X027322Y010658D02*
X027468Y010658D01*
X027432Y010584D02*
X027468Y010547D01*
X027468Y010474D01*
X027432Y010437D01*
X027358Y010474D02*
X027358Y010547D01*
X027395Y010584D01*
X027432Y010584D01*
X027358Y010474D02*
X027322Y010437D01*
X027285Y010437D01*
X027248Y010474D01*
X027248Y010547D01*
X027285Y010584D01*
X027322Y010658D02*
X027248Y010731D01*
X030028Y009377D02*
X030028Y006577D01*
X030028Y004977D02*
X030028Y004577D01*
X030028Y003977D02*
X030028Y002177D01*
X032728Y002177D01*
X032728Y009377D01*
X030028Y009377D01*
X033728Y009627D02*
X033828Y009627D01*
X033828Y010627D01*
X033728Y010627D01*
X034428Y010627D02*
X034428Y009627D01*
X035428Y009627D01*
X035428Y010627D01*
X034428Y010627D01*
X034678Y010127D02*
X034711Y010252D01*
X034803Y010344D01*
X034928Y010377D01*
X035053Y010344D01*
X035145Y010252D01*
X035178Y010127D01*
X035145Y010002D01*
X035053Y009910D01*
X034928Y009877D01*
X034803Y009910D01*
X034711Y010002D01*
X034678Y010127D01*
X036028Y010577D02*
X036128Y010577D01*
X036028Y010577D02*
X036028Y009627D01*
X036128Y009627D01*
X015368Y011070D02*
X015295Y010997D01*
X015222Y011070D01*
X015222Y011217D01*
X015147Y011217D02*
X015147Y011070D01*
X015074Y011070D02*
X015037Y011070D01*
X015074Y011070D02*
X015147Y011144D01*
X015222Y011107D02*
X015368Y011107D01*
X015368Y011070D02*
X015368Y011217D01*
X014963Y011180D02*
X014963Y011107D01*
X014927Y011070D01*
X014853Y011070D01*
X014817Y011107D01*
X014817Y011144D01*
X014963Y011144D01*
X014963Y011180D02*
X014927Y011217D01*
X014853Y011217D01*
X014706Y011217D02*
X014706Y011034D01*
X014669Y010997D01*
X014669Y011107D02*
X014742Y011107D01*
X005066Y011460D02*
X004920Y011460D01*
X004920Y011424D02*
X004920Y011497D01*
X004956Y011534D01*
X005030Y011534D01*
X005066Y011497D01*
X005066Y011460D01*
X005030Y011387D02*
X004956Y011387D01*
X004920Y011424D01*
X004846Y011387D02*
X004772Y011387D01*
X004809Y011387D02*
X004809Y011607D01*
X004772Y011607D01*
X004811Y011637D02*
X004775Y011674D01*
X004775Y011747D01*
X004811Y011784D01*
X004885Y011784D01*
X004922Y011747D01*
X004922Y011710D01*
X004775Y011710D01*
X004811Y011637D02*
X004885Y011637D01*
X005032Y011674D02*
X005069Y011637D01*
X005032Y011674D02*
X005032Y011821D01*
X004996Y011784D02*
X005069Y011784D01*
X004701Y011784D02*
X004591Y011784D01*
X004554Y011747D01*
X004591Y011710D01*
X004664Y011710D01*
X004701Y011674D01*
X004664Y011637D01*
X004554Y011637D01*
X004551Y011607D02*
X004551Y011387D01*
X004661Y011387D01*
X004698Y011424D01*
X004698Y011497D01*
X004661Y011534D01*
X004551Y011534D01*
X004477Y011497D02*
X004477Y011387D01*
X004367Y011387D01*
X004330Y011424D01*
X004367Y011460D01*
X004477Y011460D01*
X004477Y011497D02*
X004440Y011534D01*
X004367Y011534D01*
X004370Y011637D02*
X004333Y011674D01*
X004333Y011747D01*
X004370Y011784D01*
X004443Y011784D01*
X004480Y011747D01*
X004480Y011710D01*
X004333Y011710D01*
X004370Y011637D02*
X004443Y011637D01*
X004256Y011497D02*
X004256Y011387D01*
X004256Y011497D02*
X004219Y011534D01*
X004109Y011534D01*
X004109Y011387D01*
X004035Y011460D02*
X003888Y011460D01*
X003888Y011424D02*
X003888Y011497D01*
X003925Y011534D01*
X003999Y011534D01*
X004035Y011497D01*
X004035Y011460D01*
X003999Y011387D02*
X003925Y011387D01*
X003888Y011424D01*
X003854Y011637D02*
X003817Y011674D01*
X003817Y011821D01*
X003780Y011784D02*
X003854Y011784D01*
X003928Y011747D02*
X003928Y011674D01*
X003964Y011637D01*
X004038Y011637D01*
X004074Y011674D01*
X004074Y011747D01*
X004038Y011784D01*
X003964Y011784D01*
X003928Y011747D01*
X004149Y011710D02*
X004222Y011784D01*
X004259Y011784D01*
X004149Y011784D02*
X004149Y011637D01*
X003706Y011637D02*
X003706Y011784D01*
X003559Y011784D02*
X003559Y011674D01*
X003596Y011637D01*
X003706Y011637D01*
X003485Y011637D02*
X003375Y011637D01*
X003338Y011674D01*
X003375Y011710D01*
X003485Y011710D01*
X003485Y011747D02*
X003485Y011637D01*
X003485Y011747D02*
X003449Y011784D01*
X003375Y011784D01*
D13*
X003371Y012197D02*
X003458Y012284D01*
X003458Y012718D01*
X003627Y012718D02*
X003800Y012718D01*
X003713Y012718D02*
X003713Y012197D01*
X003627Y012197D02*
X003800Y012197D01*
X003970Y012197D02*
X003970Y012718D01*
X004317Y012197D01*
X004317Y012718D01*
X004486Y012631D02*
X004573Y012718D01*
X004746Y012718D01*
X004833Y012631D01*
X004833Y012284D01*
X004746Y012197D01*
X004573Y012197D01*
X004486Y012284D01*
X004486Y012631D01*
X005259Y012631D02*
X005259Y012284D01*
X005346Y012197D01*
X005520Y012197D01*
X005606Y012284D01*
X005775Y012284D02*
X005862Y012197D01*
X006035Y012197D01*
X006122Y012284D01*
X005775Y012284D02*
X005775Y012631D01*
X005862Y012718D01*
X006035Y012718D01*
X006122Y012631D01*
X005606Y012631D02*
X005520Y012718D01*
X005346Y012718D01*
X005259Y012631D01*
X005088Y012284D02*
X005088Y012197D01*
X005002Y012197D01*
X005002Y012284D01*
X005088Y012284D01*
X003371Y012197D02*
X003198Y012197D01*
X003111Y012284D01*
X003111Y012718D01*
X002942Y012631D02*
X002856Y012718D01*
X002682Y012718D01*
X002595Y012631D01*
X002595Y012284D01*
X002682Y012197D01*
X002856Y012197D01*
X002942Y012284D01*
X002942Y012457D01*
X002769Y012457D01*
X002427Y012197D02*
X002080Y012718D01*
X002080Y012197D01*
X001911Y012197D02*
X001911Y012544D01*
X001738Y012718D01*
X001564Y012544D01*
X001564Y012197D01*
X001395Y012284D02*
X001309Y012197D01*
X001135Y012197D01*
X001048Y012284D01*
X001309Y012457D02*
X001395Y012371D01*
X001395Y012284D01*
X001309Y012457D02*
X001135Y012457D01*
X001048Y012544D01*
X001048Y012631D01*
X001135Y012718D01*
X001309Y012718D01*
X001395Y012631D01*
X001564Y012457D02*
X001911Y012457D01*
X002427Y012197D02*
X002427Y012718D01*
X006998Y005557D02*
X007272Y005557D01*
X007135Y005557D02*
X007135Y005147D01*
X007413Y005147D02*
X007413Y005557D01*
X007481Y005421D02*
X007618Y005421D01*
X007686Y005352D01*
X007686Y005147D01*
X007827Y005215D02*
X007895Y005284D01*
X008101Y005284D01*
X008101Y005352D02*
X008101Y005147D01*
X007895Y005147D01*
X007827Y005215D01*
X008032Y005421D02*
X008101Y005352D01*
X008032Y005421D02*
X007895Y005421D01*
X008241Y005421D02*
X008447Y005421D01*
X008515Y005352D01*
X008515Y005147D01*
X008656Y005147D02*
X008656Y005557D01*
X008861Y005421D02*
X008656Y005284D01*
X008861Y005147D01*
X009001Y005147D02*
X009206Y005147D01*
X009275Y005215D01*
X009206Y005284D01*
X009069Y005284D01*
X009001Y005352D01*
X009069Y005421D01*
X009275Y005421D01*
X009830Y005421D02*
X009966Y005421D01*
X009898Y005489D02*
X009898Y005215D01*
X009966Y005147D01*
X010106Y005215D02*
X010174Y005147D01*
X010311Y005147D01*
X010379Y005215D01*
X010379Y005352D01*
X010311Y005421D01*
X010174Y005421D01*
X010106Y005352D01*
X010106Y005215D01*
X010520Y005215D02*
X010520Y005147D01*
X010589Y005147D01*
X010589Y005215D01*
X010520Y005215D01*
X010520Y005352D02*
X010520Y005421D01*
X010589Y005421D01*
X010589Y005352D01*
X010520Y005352D01*
X011142Y005557D02*
X011415Y005557D01*
X011279Y005557D02*
X011279Y005147D01*
X011556Y005147D02*
X011556Y005557D01*
X011624Y005421D02*
X011761Y005421D01*
X011830Y005352D01*
X011830Y005147D01*
X011970Y005215D02*
X011970Y005352D01*
X012039Y005421D01*
X012176Y005421D01*
X012244Y005352D01*
X012244Y005284D01*
X011970Y005284D01*
X011970Y005215D02*
X012039Y005147D01*
X012176Y005147D01*
X011624Y005421D02*
X011556Y005352D01*
X012799Y005352D02*
X013073Y005352D01*
X013073Y005421D02*
X013073Y005147D01*
X013213Y005147D02*
X013213Y005421D01*
X013213Y005284D02*
X013350Y005421D01*
X013419Y005421D01*
X013559Y005352D02*
X013627Y005421D01*
X013832Y005421D01*
X013832Y005557D02*
X013832Y005147D01*
X013627Y005147D01*
X013559Y005215D01*
X013559Y005352D01*
X013973Y005421D02*
X013973Y005215D01*
X014041Y005147D01*
X014247Y005147D01*
X014247Y005421D01*
X014387Y005421D02*
X014456Y005421D01*
X014456Y005147D01*
X014524Y005147D02*
X014387Y005147D01*
X014664Y005147D02*
X014664Y005421D01*
X014869Y005421D01*
X014937Y005352D01*
X014937Y005147D01*
X015078Y005215D02*
X015078Y005352D01*
X015146Y005421D01*
X015283Y005421D01*
X015351Y005352D01*
X015351Y005215D01*
X015283Y005147D01*
X015146Y005147D01*
X015078Y005215D01*
X016043Y005147D02*
X016043Y005557D01*
X015907Y005557D02*
X016180Y005557D01*
X016321Y005352D02*
X016389Y005421D01*
X016526Y005421D01*
X016594Y005352D01*
X016594Y005284D01*
X016321Y005284D01*
X016321Y005352D02*
X016321Y005215D01*
X016389Y005147D01*
X016526Y005147D01*
X016735Y005215D02*
X016804Y005284D01*
X017009Y005284D01*
X017009Y005352D02*
X017009Y005147D01*
X016804Y005147D01*
X016735Y005215D01*
X016940Y005421D02*
X017009Y005352D01*
X016940Y005421D02*
X016804Y005421D01*
X017150Y005421D02*
X017218Y005421D01*
X017286Y005352D01*
X017355Y005421D01*
X017423Y005352D01*
X017423Y005147D01*
X017286Y005147D02*
X017286Y005352D01*
X017150Y005421D02*
X017150Y005147D01*
X017564Y005010D02*
X017701Y005147D01*
X017632Y005147D01*
X017632Y005215D01*
X017701Y005215D01*
X017701Y005147D01*
X018254Y005147D02*
X018528Y005147D01*
X018669Y005215D02*
X018737Y005284D01*
X018942Y005284D01*
X018942Y005352D02*
X018942Y005147D01*
X018737Y005147D01*
X018669Y005215D01*
X018874Y005421D02*
X018942Y005352D01*
X018874Y005421D02*
X018737Y005421D01*
X019083Y005352D02*
X019151Y005421D01*
X019357Y005421D01*
X019357Y005557D02*
X019357Y005147D01*
X019151Y005147D01*
X019083Y005215D01*
X019083Y005352D01*
X019497Y005421D02*
X019497Y005215D01*
X019566Y005147D01*
X019771Y005147D01*
X019771Y005079D02*
X019703Y005010D01*
X019634Y005010D01*
X019771Y005079D02*
X019771Y005421D01*
X019980Y005421D02*
X020117Y005421D01*
X020185Y005352D01*
X020185Y005147D01*
X019980Y005147D01*
X019912Y005215D01*
X019980Y005284D01*
X020185Y005284D01*
X020326Y005352D02*
X020394Y005421D01*
X020600Y005421D01*
X020600Y005557D02*
X020600Y005147D01*
X020394Y005147D01*
X020326Y005215D01*
X020326Y005352D01*
X020740Y005215D02*
X020809Y005284D01*
X021014Y005284D01*
X021014Y005352D02*
X021014Y005147D01*
X020809Y005147D01*
X020740Y005215D01*
X020946Y005421D02*
X021014Y005352D01*
X020946Y005421D02*
X020809Y005421D01*
X021223Y005215D02*
X021223Y005147D01*
X021291Y005147D01*
X021291Y005215D01*
X021223Y005215D01*
X021291Y005147D02*
X021155Y005010D01*
X021845Y005147D02*
X021845Y005557D01*
X022119Y005147D01*
X022119Y005557D01*
X022260Y005557D02*
X022260Y005489D01*
X022396Y005352D01*
X022396Y005147D01*
X022396Y005352D02*
X022533Y005489D01*
X022533Y005557D01*
X022674Y005489D02*
X022674Y005215D01*
X022742Y005147D01*
X022879Y005147D01*
X022947Y005215D01*
X023503Y005147D02*
X023503Y005557D01*
X023708Y005557D01*
X023776Y005489D01*
X023776Y005352D01*
X023708Y005284D01*
X023503Y005284D01*
X023639Y005284D02*
X023776Y005147D01*
X023917Y005215D02*
X023917Y005352D01*
X023985Y005421D01*
X024122Y005421D01*
X024190Y005352D01*
X024190Y005284D01*
X023917Y005284D01*
X023917Y005215D02*
X023985Y005147D01*
X024122Y005147D01*
X024331Y005147D02*
X024536Y005147D01*
X024605Y005215D01*
X024536Y005284D01*
X024400Y005284D01*
X024331Y005352D01*
X024400Y005421D01*
X024605Y005421D01*
X024746Y005421D02*
X024814Y005421D01*
X024814Y005147D01*
X024746Y005147D02*
X024882Y005147D01*
X025022Y005147D02*
X025227Y005147D01*
X025295Y005215D01*
X025227Y005284D01*
X025090Y005284D01*
X025022Y005352D01*
X025090Y005421D01*
X025295Y005421D01*
X025436Y005421D02*
X025573Y005421D01*
X025505Y005489D02*
X025505Y005215D01*
X025573Y005147D01*
X025712Y005215D02*
X025712Y005352D01*
X025781Y005421D01*
X025918Y005421D01*
X025986Y005352D01*
X025986Y005215D01*
X025918Y005147D01*
X025781Y005147D01*
X025712Y005215D01*
X026127Y005147D02*
X026127Y005421D01*
X026263Y005421D02*
X026332Y005421D01*
X026263Y005421D02*
X026127Y005284D01*
X024814Y005557D02*
X024814Y005626D01*
X022947Y005489D02*
X022879Y005557D01*
X022742Y005557D01*
X022674Y005489D01*
X018254Y005557D02*
X018254Y005147D01*
X014456Y005557D02*
X014456Y005626D01*
X013073Y005421D02*
X012936Y005557D01*
X012799Y005421D01*
X012799Y005147D01*
X008241Y005147D02*
X008241Y005421D01*
X007481Y005421D02*
X007413Y005352D01*
X007109Y003418D02*
X007195Y003331D01*
X006848Y002984D01*
X006935Y002897D01*
X007109Y002897D01*
X007195Y002984D01*
X007195Y003331D01*
X007109Y003418D02*
X006935Y003418D01*
X006848Y003331D01*
X006848Y002984D01*
X007848Y002897D02*
X008195Y002897D01*
X008022Y002897D02*
X008022Y003418D01*
X007848Y003244D01*
X008848Y003331D02*
X008935Y003418D01*
X009109Y003418D01*
X009195Y003331D01*
X009195Y003244D01*
X008848Y002897D01*
X009195Y002897D01*
X009848Y002984D02*
X009935Y002897D01*
X010109Y002897D01*
X010195Y002984D01*
X010195Y003071D01*
X010109Y003157D01*
X010022Y003157D01*
X010109Y003157D02*
X010195Y003244D01*
X010195Y003331D01*
X010109Y003418D01*
X009935Y003418D01*
X009848Y003331D01*
X010848Y003157D02*
X011195Y003157D01*
X011109Y003418D02*
X010848Y003157D01*
X011109Y002897D02*
X011109Y003418D01*
X011848Y003418D02*
X011848Y003157D01*
X012022Y003244D01*
X012109Y003244D01*
X012195Y003157D01*
X012195Y002984D01*
X012109Y002897D01*
X011935Y002897D01*
X011848Y002984D01*
X011848Y003418D02*
X012195Y003418D01*
X012848Y003157D02*
X013109Y003157D01*
X013195Y003071D01*
X013195Y002984D01*
X013109Y002897D01*
X012935Y002897D01*
X012848Y002984D01*
X012848Y003157D01*
X013022Y003331D01*
X013195Y003418D01*
X013848Y003418D02*
X014195Y003418D01*
X014195Y003331D01*
X013848Y002984D01*
X013848Y002897D01*
X017898Y002984D02*
X017985Y002897D01*
X018159Y002897D01*
X018245Y002984D01*
X018245Y003157D01*
X018072Y003157D01*
X017898Y002984D02*
X017898Y003331D01*
X017985Y003418D01*
X018159Y003418D01*
X018245Y003331D01*
X018414Y003418D02*
X018761Y002897D01*
X018761Y003418D01*
X018930Y003418D02*
X019190Y003418D01*
X019277Y003331D01*
X019277Y002984D01*
X019190Y002897D01*
X018930Y002897D01*
X018930Y003418D01*
X018414Y003418D02*
X018414Y002897D01*
X025748Y007315D02*
X025816Y007247D01*
X026090Y007247D01*
X026158Y007315D01*
X026158Y007452D01*
X026090Y007521D01*
X025953Y007521D01*
X025953Y007384D01*
X025816Y007521D02*
X025748Y007452D01*
X025748Y007315D01*
X025748Y007661D02*
X025748Y007867D01*
X025816Y007935D01*
X025953Y007935D01*
X026022Y007867D01*
X026022Y007661D01*
X026158Y007661D02*
X025748Y007661D01*
X025748Y008076D02*
X026158Y008076D01*
X026158Y008349D01*
X026022Y008490D02*
X026158Y008627D01*
X026022Y008764D01*
X025748Y008764D01*
X025816Y008904D02*
X025748Y008973D01*
X025748Y009110D01*
X025816Y009178D01*
X025885Y009178D01*
X026158Y008904D01*
X026158Y009178D01*
X026022Y008490D02*
X025748Y008490D01*
X039479Y008746D02*
X039873Y008746D01*
X040069Y008746D02*
X040463Y008746D01*
X040660Y008746D02*
X041054Y008746D01*
X041447Y008746D02*
X041841Y008746D01*
X042038Y008746D02*
X042432Y008746D01*
X042235Y009533D02*
X041447Y009533D01*
X041054Y009533D02*
X040069Y009533D01*
X040069Y010321D02*
X041054Y010321D01*
X041447Y010321D02*
X042235Y010321D01*
X042432Y010124D01*
X042432Y009730D01*
X042235Y009533D01*
X042432Y011108D02*
X042038Y011108D01*
X041841Y011108D02*
X041447Y011108D01*
X041054Y011108D02*
X040660Y011108D01*
X040463Y011108D02*
X040069Y011108D01*
X039873Y011108D02*
X039479Y011108D01*
X041070Y011886D02*
X041147Y011809D01*
X041301Y011809D01*
X041377Y011886D01*
X041377Y012270D01*
X041531Y012193D02*
X041531Y012116D01*
X041607Y012039D01*
X041761Y012039D01*
X041838Y011963D01*
X041838Y011886D01*
X041761Y011809D01*
X041607Y011809D01*
X041531Y011886D01*
X041070Y011886D02*
X041070Y012270D01*
X041531Y012193D02*
X041607Y012270D01*
X041761Y012270D01*
X041838Y012193D01*
X041991Y012116D02*
X042145Y012270D01*
X042145Y011809D01*
X042298Y011809D02*
X041991Y011809D01*
X041684Y011733D02*
X041684Y012346D01*
X041607Y007939D02*
X041531Y007862D01*
X041607Y007939D02*
X041761Y007939D01*
X041838Y007862D01*
X041838Y007785D01*
X041531Y007479D01*
X041838Y007479D01*
X041991Y007479D02*
X042298Y007479D01*
X042145Y007479D02*
X042145Y007939D01*
X041991Y007785D01*
X041377Y007862D02*
X041301Y007939D01*
X041147Y007939D01*
X041070Y007862D01*
X041070Y007555D01*
X041147Y007479D01*
X041301Y007479D01*
X041377Y007555D01*
X040917Y007555D02*
X040917Y007862D01*
X040840Y007939D01*
X040610Y007939D01*
X040610Y007479D01*
X040840Y007479D01*
X040917Y007555D01*
D14*
X029228Y007127D02*
X029228Y004727D01*
X029194Y004488D01*
X029093Y004267D01*
X028935Y004085D01*
X028731Y003954D01*
X028499Y003886D01*
X028257Y003886D01*
X028025Y003954D01*
X027821Y004085D01*
X027663Y004267D01*
X027562Y004488D01*
X027528Y004727D01*
X027528Y007127D01*
X027562Y007366D01*
X027663Y007587D01*
X027821Y007769D01*
X028025Y007900D01*
X028257Y007968D01*
X028499Y007968D01*
X028731Y007900D01*
X028935Y007769D01*
X029093Y007587D01*
X029194Y007366D01*
X029228Y007127D01*
X025467Y007664D02*
X025160Y007357D01*
X024546Y007357D01*
X024239Y007664D01*
X024239Y008892D01*
X024546Y009199D01*
X025160Y009199D01*
X025467Y008892D01*
X023625Y008892D02*
X023318Y009199D01*
X022704Y009199D01*
X022398Y008892D01*
X022398Y007664D01*
X022704Y007357D01*
X023318Y007357D01*
X023625Y007664D01*
X021784Y007664D02*
X021784Y007357D01*
X021477Y007357D01*
X021477Y007664D01*
X021784Y007664D01*
X020863Y007664D02*
X020556Y007357D01*
X019942Y007357D01*
X019635Y007664D01*
X019635Y008892D01*
X019942Y009199D01*
X020556Y009199D01*
X020863Y008892D01*
X020863Y007664D01*
X019021Y007357D02*
X019021Y009199D01*
X017794Y009199D02*
X019021Y007357D01*
X017794Y007357D02*
X017794Y009199D01*
X017180Y009199D02*
X016566Y009199D01*
X016873Y009199D02*
X016873Y007357D01*
X016566Y007357D02*
X017180Y007357D01*
X015952Y007664D02*
X015952Y009199D01*
X014725Y009199D02*
X014725Y007664D01*
X015031Y007357D01*
X015645Y007357D01*
X015952Y007664D01*
X014111Y007664D02*
X014111Y008278D01*
X013497Y008278D01*
X012883Y008892D02*
X012883Y007664D01*
X013190Y007357D01*
X013804Y007357D01*
X014111Y007664D01*
X012269Y007357D02*
X012269Y009199D01*
X012883Y008892D02*
X013190Y009199D01*
X013804Y009199D01*
X014111Y008892D01*
X012269Y007357D02*
X011041Y009199D01*
X011041Y007357D01*
X010428Y007357D02*
X010428Y008585D01*
X009814Y009199D01*
X009200Y008585D01*
X009200Y007357D01*
X008586Y007664D02*
X008279Y007357D01*
X007665Y007357D01*
X007358Y007664D01*
X008279Y008278D02*
X008586Y007971D01*
X008586Y007664D01*
X008279Y008278D02*
X007665Y008278D01*
X007358Y008585D01*
X007358Y008892D01*
X007665Y009199D01*
X008279Y009199D01*
X008586Y008892D01*
X009200Y008278D02*
X010428Y008278D01*
D15*
X023879Y012822D02*
X023879Y012922D01*
X023879Y012847D02*
X023979Y012847D01*
X023979Y012822D02*
X023979Y012922D01*
X024026Y012897D02*
X024026Y012797D01*
X024051Y012772D01*
X024126Y012772D01*
X024126Y012922D01*
X024051Y012922D01*
X024026Y012897D01*
X023979Y012822D02*
X023929Y012772D01*
X023879Y012822D01*
X024173Y012797D02*
X024198Y012772D01*
X024248Y012772D01*
X024273Y012797D01*
X024273Y012822D01*
X024248Y012847D01*
X024198Y012847D01*
X024173Y012872D01*
X024173Y012897D01*
X024198Y012922D01*
X024248Y012922D01*
X024273Y012897D01*
X024829Y012922D02*
X024929Y012922D01*
X024929Y012772D01*
X024976Y012797D02*
X025001Y012772D01*
X025051Y012772D01*
X025076Y012797D01*
X025076Y012897D01*
X025051Y012922D01*
X025001Y012922D01*
X024976Y012897D01*
X025123Y012897D02*
X025148Y012922D01*
X025198Y012922D01*
X025223Y012897D01*
X025198Y012847D02*
X025223Y012822D01*
X025223Y012797D01*
X025198Y012772D01*
X025148Y012772D01*
X025123Y012797D01*
X025148Y012847D02*
X025123Y012872D01*
X025123Y012897D01*
X025148Y012847D02*
X025198Y012847D01*
X025879Y012772D02*
X025879Y012922D01*
X025979Y012922D02*
X025979Y012772D01*
X025929Y012822D01*
X025879Y012772D01*
X026026Y012772D02*
X026026Y012922D01*
X026076Y012872D01*
X026126Y012922D01*
X026126Y012772D01*
X026173Y012797D02*
X026173Y012847D01*
X026198Y012872D01*
X026273Y012872D01*
X026273Y012922D02*
X026273Y012772D01*
X026198Y012772D01*
X026173Y012797D01*
X026176Y010872D02*
X026126Y010822D01*
X026076Y010872D01*
X026076Y010722D01*
X026029Y010722D02*
X025979Y010772D01*
X025929Y010722D01*
X025929Y010872D01*
X026029Y010872D02*
X026029Y010722D01*
X026176Y010722D02*
X026176Y010872D01*
X026248Y010822D02*
X026323Y010822D01*
X026323Y010872D02*
X026323Y010722D01*
X026248Y010722D01*
X026223Y010747D01*
X026223Y010797D01*
X026248Y010822D01*
X033974Y007851D02*
X033974Y007801D01*
X033973Y007802D02*
X033925Y007780D01*
X033903Y007732D01*
X033854Y007731D01*
X033853Y007732D01*
X033871Y007791D01*
X033914Y007834D01*
X033973Y007852D01*
X033973Y007843D01*
X033896Y007809D01*
X033862Y007732D01*
X033871Y007732D01*
X033902Y007803D01*
X033973Y007834D01*
X033973Y007825D01*
X033909Y007796D01*
X033880Y007732D01*
X033889Y007732D01*
X033915Y007790D01*
X033973Y007816D01*
X033973Y007807D01*
X033921Y007784D01*
X033898Y007732D01*
X036402Y007731D02*
X036352Y007731D01*
X036353Y007732D02*
X036331Y007780D01*
X036283Y007802D01*
X036282Y007851D01*
X036283Y007852D01*
X036342Y007834D01*
X036385Y007791D01*
X036403Y007732D01*
X036394Y007732D01*
X036360Y007809D01*
X036283Y007843D01*
X036283Y007834D01*
X036354Y007803D01*
X036385Y007732D01*
X036376Y007732D01*
X036347Y007796D01*
X036283Y007825D01*
X036283Y007816D01*
X036341Y007790D01*
X036367Y007732D01*
X036358Y007732D01*
X036335Y007784D01*
X036283Y007807D01*
X036282Y006903D02*
X036282Y006953D01*
X036283Y006952D02*
X036331Y006974D01*
X036353Y007022D01*
X036402Y007023D01*
X036403Y007022D01*
X036385Y006963D01*
X036342Y006920D01*
X036283Y006902D01*
X036283Y006911D01*
X036360Y006945D01*
X036394Y007022D01*
X036385Y007022D01*
X036354Y006951D01*
X036283Y006920D01*
X036283Y006929D01*
X036347Y006958D01*
X036376Y007022D01*
X036367Y007022D01*
X036341Y006964D01*
X036283Y006938D01*
X036283Y006947D01*
X036335Y006970D01*
X036358Y007022D01*
X033854Y007023D02*
X033904Y007023D01*
X033903Y007022D02*
X033925Y006974D01*
X033973Y006952D01*
X033974Y006903D01*
X033973Y006902D01*
X033914Y006920D01*
X033871Y006963D01*
X033853Y007022D01*
X033862Y007022D01*
X033896Y006945D01*
X033973Y006911D01*
X033973Y006920D01*
X033902Y006951D01*
X033871Y007022D01*
X033880Y007022D01*
X033909Y006958D01*
X033973Y006929D01*
X033973Y006938D01*
X033915Y006964D01*
X033889Y007022D01*
X033898Y007022D01*
X033921Y006970D01*
X033973Y006947D01*
X026228Y003532D02*
X026228Y003382D01*
X026128Y003382D02*
X026128Y003532D01*
X026178Y003482D01*
X026228Y003532D01*
X026081Y003532D02*
X026081Y003382D01*
X026031Y003432D01*
X025981Y003382D01*
X025981Y003532D01*
X025934Y003507D02*
X025934Y003457D01*
X025908Y003432D01*
X025833Y003432D01*
X025833Y003382D02*
X025833Y003532D01*
X025908Y003532D01*
X025934Y003507D01*
X025228Y003532D02*
X025228Y003382D01*
X025128Y003382D02*
X025128Y003532D01*
X025178Y003482D01*
X025228Y003532D01*
X025081Y003532D02*
X025081Y003382D01*
X025031Y003432D01*
X024981Y003382D01*
X024981Y003532D01*
X024934Y003507D02*
X024934Y003457D01*
X024908Y003432D01*
X024833Y003432D01*
X024833Y003382D02*
X024833Y003532D01*
X024908Y003532D01*
X024934Y003507D01*
X024228Y003532D02*
X024228Y003382D01*
X024128Y003382D02*
X024128Y003532D01*
X024178Y003482D01*
X024228Y003532D01*
X024081Y003532D02*
X024081Y003382D01*
X024031Y003432D01*
X023981Y003382D01*
X023981Y003532D01*
X023934Y003507D02*
X023934Y003457D01*
X023908Y003432D01*
X023833Y003432D01*
X023833Y003382D02*
X023833Y003532D01*
X023908Y003532D01*
X023934Y003507D01*
X023883Y001482D02*
X023958Y001482D01*
X023984Y001457D01*
X023984Y001407D01*
X023958Y001382D01*
X023883Y001382D01*
X023883Y001332D02*
X023883Y001482D01*
X024031Y001482D02*
X024031Y001332D01*
X024081Y001382D01*
X024131Y001332D01*
X024131Y001482D01*
X024178Y001482D02*
X024228Y001432D01*
X024278Y001482D01*
X024278Y001332D01*
X024178Y001332D02*
X024178Y001482D01*
X024883Y001482D02*
X024883Y001332D01*
X024883Y001382D02*
X024958Y001382D01*
X024984Y001407D01*
X024984Y001457D01*
X024958Y001482D01*
X024883Y001482D01*
X025031Y001482D02*
X025031Y001332D01*
X025081Y001382D01*
X025131Y001332D01*
X025131Y001482D01*
X025178Y001482D02*
X025228Y001432D01*
X025278Y001482D01*
X025278Y001332D01*
X025178Y001332D02*
X025178Y001482D01*
X025883Y001482D02*
X025883Y001332D01*
X025883Y001382D02*
X025958Y001382D01*
X025984Y001407D01*
X025984Y001457D01*
X025958Y001482D01*
X025883Y001482D01*
X026031Y001482D02*
X026031Y001332D01*
X026081Y001382D01*
X026131Y001332D01*
X026131Y001482D01*
X026178Y001482D02*
X026228Y001432D01*
X026278Y001482D01*
X026278Y001332D01*
X026178Y001332D02*
X026178Y001482D01*
X014278Y001482D02*
X014178Y001382D01*
X014203Y001407D02*
X014278Y001332D01*
X014178Y001332D02*
X014178Y001482D01*
X014131Y001457D02*
X014106Y001482D01*
X014056Y001482D01*
X014031Y001457D01*
X014031Y001357D01*
X014056Y001332D01*
X014106Y001332D01*
X014131Y001357D01*
X013984Y001357D02*
X013984Y001382D01*
X013958Y001407D01*
X013908Y001407D01*
X013883Y001432D01*
X013883Y001457D01*
X013908Y001482D01*
X013958Y001482D01*
X013984Y001457D01*
X013984Y001357D02*
X013958Y001332D01*
X013908Y001332D01*
X013883Y001357D01*
X013326Y001357D02*
X013326Y001457D01*
X013301Y001482D01*
X013251Y001482D01*
X013226Y001457D01*
X013226Y001357D01*
X013251Y001332D01*
X013301Y001332D01*
X013326Y001357D01*
X013179Y001357D02*
X013179Y001382D01*
X013154Y001407D01*
X013104Y001407D01*
X013079Y001432D01*
X013079Y001457D01*
X013104Y001482D01*
X013154Y001482D01*
X013179Y001457D01*
X013179Y001357D02*
X013154Y001332D01*
X013104Y001332D01*
X013079Y001357D01*
X013031Y001332D02*
X012981Y001332D01*
X013006Y001332D02*
X013006Y001482D01*
X012981Y001482D02*
X013031Y001482D01*
X012934Y001482D02*
X012934Y001332D01*
X012833Y001332D02*
X012833Y001482D01*
X012883Y001432D01*
X012934Y001482D01*
X012325Y001482D02*
X012275Y001482D01*
X012300Y001482D02*
X012300Y001332D01*
X012275Y001332D02*
X012325Y001332D01*
X012228Y001357D02*
X012203Y001332D01*
X012153Y001332D01*
X012128Y001357D01*
X012081Y001357D02*
X012081Y001457D01*
X012056Y001482D01*
X012006Y001482D01*
X011981Y001457D01*
X011981Y001357D01*
X012006Y001332D01*
X012056Y001332D01*
X012081Y001357D01*
X012153Y001407D02*
X012203Y001407D01*
X012228Y001382D01*
X012228Y001357D01*
X012153Y001407D02*
X012128Y001432D01*
X012128Y001457D01*
X012153Y001482D01*
X012203Y001482D01*
X012228Y001457D01*
X011934Y001482D02*
X011934Y001332D01*
X011833Y001332D02*
X011833Y001482D01*
X011883Y001432D01*
X011934Y001482D01*
X011278Y001482D02*
X011278Y001332D01*
X011178Y001332D02*
X011178Y001482D01*
X011228Y001432D01*
X011278Y001482D01*
X011131Y001482D02*
X011131Y001332D01*
X011081Y001382D01*
X011031Y001332D01*
X011031Y001482D01*
X010984Y001457D02*
X010984Y001407D01*
X010958Y001382D01*
X010883Y001382D01*
X010883Y001332D02*
X010883Y001482D01*
X010958Y001482D01*
X010984Y001457D01*
X010278Y001482D02*
X010278Y001332D01*
X010178Y001332D02*
X010178Y001482D01*
X010228Y001432D01*
X010278Y001482D01*
X010131Y001482D02*
X010131Y001332D01*
X010081Y001382D01*
X010031Y001332D01*
X010031Y001482D01*
X009984Y001457D02*
X009984Y001407D01*
X009958Y001382D01*
X009883Y001382D01*
X009883Y001332D02*
X009883Y001482D01*
X009958Y001482D01*
X009984Y001457D01*
D16*
X009828Y001627D02*
X010328Y001627D01*
X010578Y001877D01*
X010828Y001627D01*
X011328Y001627D01*
X011578Y001877D01*
X011578Y002377D01*
X011328Y002627D01*
X010828Y002627D01*
X010578Y002377D01*
X010578Y001877D01*
X009828Y001627D02*
X009578Y001877D01*
X009328Y001627D01*
X008828Y001627D01*
X008578Y001877D01*
X008328Y001627D01*
X007828Y001627D01*
X007578Y001877D01*
X007328Y001627D01*
X006828Y001627D01*
X006578Y001877D01*
X006578Y002377D01*
X006828Y002627D01*
X007328Y002627D01*
X007578Y002377D01*
X007828Y002627D01*
X008328Y002627D01*
X008578Y002377D01*
X008578Y001877D01*
X009578Y001877D02*
X009578Y002377D01*
X009828Y002627D01*
X010328Y002627D01*
X010578Y002377D01*
X009578Y002377D02*
X009328Y002627D01*
X008828Y002627D01*
X008578Y002377D01*
X007578Y002377D02*
X007578Y001877D01*
X005578Y002477D02*
X005425Y002447D01*
X005295Y002360D01*
X005208Y002230D01*
X005178Y002077D01*
X005328Y002077D02*
X005347Y002173D01*
X005401Y002254D01*
X005482Y002308D01*
X005578Y002327D01*
X006026Y002476D02*
X006109Y002356D01*
X006160Y002221D01*
X006178Y002077D01*
X005978Y002077D02*
X005948Y001924D01*
X005861Y001794D01*
X005731Y001707D01*
X005578Y001677D01*
X005578Y001827D02*
X005674Y001846D01*
X005755Y001900D01*
X005809Y001981D01*
X005828Y002077D01*
X006052Y002445D02*
X005920Y002570D01*
X005757Y002650D01*
X005578Y002677D01*
X005399Y002650D01*
X005236Y002570D01*
X005104Y002445D01*
X005578Y001477D02*
X005761Y001505D01*
X005926Y001588D01*
X006058Y001717D01*
X005578Y001477D02*
X005391Y001507D01*
X005223Y001593D01*
X005090Y001728D01*
X004978Y002077D02*
X005014Y002281D01*
X005117Y002461D01*
X004978Y002077D02*
X004995Y001937D01*
X005044Y001804D01*
X005122Y001687D01*
X006039Y001693D02*
X006142Y001873D01*
X006178Y002077D01*
X004478Y003227D02*
X004513Y003390D01*
X004610Y003524D01*
X004754Y003607D01*
X004920Y003625D01*
X005078Y003573D01*
X005202Y003462D01*
X005269Y003310D01*
X005269Y003144D01*
X005202Y002992D01*
X005078Y002881D01*
X004920Y002829D01*
X004754Y002847D01*
X004610Y002930D01*
X004513Y003064D01*
X004478Y003227D01*
X004378Y003227D02*
X004416Y003418D01*
X004524Y003581D01*
X004687Y003689D01*
X004878Y003727D01*
X005069Y003689D01*
X005232Y003581D01*
X005340Y003418D01*
X005378Y003227D01*
X005340Y003036D01*
X005232Y002873D01*
X005069Y002765D01*
X004878Y002727D01*
X004687Y002765D01*
X004524Y002873D01*
X004416Y003036D01*
X004378Y003227D01*
X003328Y003227D02*
X003363Y003390D01*
X003460Y003524D01*
X003604Y003607D01*
X003770Y003625D01*
X003928Y003573D01*
X004052Y003462D01*
X004119Y003310D01*
X004119Y003144D01*
X004052Y002992D01*
X003928Y002881D01*
X003770Y002829D01*
X003604Y002847D01*
X003460Y002930D01*
X003363Y003064D01*
X003328Y003227D01*
X003228Y003227D02*
X003266Y003418D01*
X003374Y003581D01*
X003537Y003689D01*
X003728Y003727D01*
X003919Y003689D01*
X004082Y003581D01*
X004190Y003418D01*
X004228Y003227D01*
X004190Y003036D01*
X004082Y002873D01*
X003919Y002765D01*
X003728Y002727D01*
X003537Y002765D01*
X003374Y002873D01*
X003266Y003036D01*
X003228Y003227D01*
X002328Y003827D02*
X005828Y003827D01*
X005828Y005327D01*
X005778Y005327D01*
X005778Y005827D01*
X005828Y005827D01*
X005828Y006027D01*
X005428Y006027D01*
X005328Y006027D01*
X005328Y004327D01*
X002828Y004327D01*
X002828Y009327D01*
X005328Y009327D01*
X005328Y007627D01*
X005428Y007627D01*
X005828Y007627D01*
X005828Y006027D01*
X005328Y006027D02*
X005028Y006027D01*
X005028Y007627D01*
X005328Y007627D01*
X005828Y007627D02*
X005828Y009827D01*
X002328Y009827D01*
X002328Y009327D01*
X002228Y009327D01*
X002228Y008827D01*
X002328Y008827D01*
X002328Y007077D01*
X002228Y007077D01*
X002228Y006577D01*
X002328Y006577D01*
X002328Y004827D01*
X002228Y004827D01*
X002228Y004327D01*
X002328Y004327D01*
X002328Y003827D01*
X002078Y004177D02*
X002078Y001477D01*
X002065Y001427D01*
X002028Y001390D01*
X001978Y001377D01*
X000978Y001377D01*
X000928Y001390D01*
X000891Y001427D01*
X000878Y001477D01*
X000878Y004177D01*
X000891Y004227D01*
X000928Y004264D01*
X000978Y004277D01*
X001978Y004277D01*
X002028Y004264D01*
X002065Y004227D01*
X002078Y004177D01*
X001678Y004877D02*
X001178Y004877D01*
X000928Y005127D01*
X000928Y005627D01*
X001178Y005877D01*
X000928Y006127D01*
X000928Y006627D01*
X001178Y006877D01*
X001678Y006877D01*
X001928Y006627D01*
X001928Y006127D01*
X001678Y005877D01*
X001928Y005627D01*
X001928Y005127D01*
X001678Y004877D01*
X001678Y005877D02*
X001178Y005877D01*
X001178Y006877D02*
X000928Y007127D01*
X000928Y007627D01*
X001178Y007877D01*
X000928Y008127D01*
X000928Y008627D01*
X001178Y008877D01*
X000928Y009127D01*
X000928Y009627D01*
X001178Y009877D01*
X000928Y010127D01*
X000928Y010627D01*
X001178Y010877D01*
X001678Y010877D01*
X001928Y010627D01*
X001928Y010127D01*
X001678Y009877D01*
X001928Y009627D01*
X001928Y009127D01*
X001678Y008877D01*
X001928Y008627D01*
X001928Y008127D01*
X001678Y007877D01*
X001928Y007627D01*
X001928Y007127D01*
X001678Y006877D01*
X001678Y007877D02*
X001178Y007877D01*
X001178Y008877D02*
X001678Y008877D01*
X001678Y009877D02*
X001178Y009877D01*
X002178Y010077D02*
X002178Y011077D01*
X002191Y011127D01*
X002228Y011164D01*
X002278Y011177D01*
X004978Y011177D01*
X005028Y011164D01*
X005065Y011127D01*
X005078Y011077D01*
X005078Y010077D01*
X005065Y010027D01*
X005028Y009990D01*
X004978Y009977D01*
X002278Y009977D01*
X002228Y009990D01*
X002191Y010027D01*
X002178Y010077D01*
X003028Y010577D02*
X003508Y010577D01*
X003758Y010577D02*
X004228Y010577D01*
X005278Y010727D02*
X005528Y010977D01*
X005278Y011227D01*
X005278Y011727D01*
X005528Y011977D01*
X006028Y011977D01*
X006278Y011727D01*
X006278Y011227D01*
X006028Y010977D01*
X006278Y010727D01*
X006278Y010227D01*
X006028Y009977D01*
X005528Y009977D01*
X005278Y010227D01*
X005278Y010727D01*
X005528Y010977D02*
X006028Y010977D01*
X006828Y011627D02*
X007328Y011627D01*
X007578Y011877D01*
X007828Y011627D01*
X008328Y011627D01*
X008578Y011877D01*
X008578Y012377D01*
X008328Y012627D01*
X007828Y012627D01*
X007578Y012377D01*
X007578Y011877D01*
X006828Y011627D02*
X006578Y011877D01*
X006578Y012377D01*
X006828Y012627D01*
X007328Y012627D01*
X007578Y012377D01*
X008578Y012377D02*
X008828Y012627D01*
X009328Y012627D01*
X009578Y012377D01*
X009828Y012627D01*
X010328Y012627D01*
X010578Y012377D01*
X010828Y012627D01*
X011328Y012627D01*
X011578Y012377D01*
X011578Y011877D01*
X011328Y011627D01*
X010828Y011627D01*
X010578Y011877D01*
X010328Y011627D01*
X009828Y011627D01*
X009578Y011877D01*
X009328Y011627D01*
X008828Y011627D01*
X008578Y011877D01*
X009578Y011877D02*
X009578Y012377D01*
X010578Y012377D02*
X010578Y011877D01*
X011578Y011877D02*
X011828Y011627D01*
X012328Y011627D01*
X012578Y011877D01*
X012828Y011627D01*
X013328Y011627D01*
X013578Y011877D01*
X013828Y011627D01*
X014328Y011627D01*
X014578Y011877D01*
X014828Y011627D01*
X015328Y011627D01*
X015578Y011877D01*
X015578Y012377D01*
X015828Y012627D01*
X016328Y012627D01*
X016578Y012377D01*
X016828Y012627D01*
X017328Y012627D01*
X017578Y012377D01*
X017578Y011877D01*
X017328Y011627D01*
X016828Y011627D01*
X016578Y011877D01*
X016328Y011627D01*
X015828Y011627D01*
X015578Y011877D01*
X015578Y012377D01*
X015328Y012627D01*
X014828Y012627D01*
X014578Y012377D01*
X014578Y011877D01*
X014578Y012377D02*
X014328Y012627D01*
X013828Y012627D01*
X013578Y012377D01*
X013578Y011877D01*
X012578Y011877D02*
X012578Y012377D01*
X012828Y012627D01*
X013328Y012627D01*
X013578Y012377D01*
X012578Y012377D02*
X012328Y012627D01*
X011828Y012627D01*
X011578Y012377D01*
X016578Y012377D02*
X016578Y011877D01*
X017578Y011877D02*
X017578Y012377D01*
X017828Y012627D01*
X018328Y012627D01*
X018578Y012377D01*
X018828Y012627D01*
X019328Y012627D01*
X019578Y012377D01*
X019828Y012627D01*
X020328Y012627D01*
X020578Y012377D01*
X020828Y012627D01*
X021328Y012627D01*
X021578Y012377D01*
X021828Y012627D01*
X022328Y012627D01*
X022578Y012377D01*
X022828Y012627D01*
X023328Y012627D01*
X023578Y012377D01*
X023828Y012627D01*
X024328Y012627D01*
X024578Y012377D01*
X024828Y012627D01*
X025328Y012627D01*
X025578Y012377D01*
X025828Y012627D01*
X026328Y012627D01*
X026578Y012377D01*
X026828Y012627D01*
X027328Y012627D01*
X027578Y012377D01*
X027828Y012627D01*
X028328Y012627D01*
X028578Y012377D01*
X028578Y011877D01*
X028328Y011627D01*
X027828Y011627D01*
X027578Y011877D01*
X027328Y011627D01*
X026828Y011627D01*
X026578Y011877D01*
X026578Y012377D01*
X026578Y011877D01*
X026328Y011627D01*
X025828Y011627D01*
X025578Y011877D01*
X025328Y011627D01*
X024828Y011627D01*
X024578Y011877D01*
X024578Y012377D01*
X023578Y012377D02*
X023578Y011877D01*
X023328Y011627D01*
X022828Y011627D01*
X022578Y011877D01*
X022328Y011627D01*
X021828Y011627D01*
X021578Y011877D01*
X021578Y012377D01*
X020578Y012377D02*
X020578Y011877D01*
X020328Y011627D01*
X019828Y011627D01*
X019578Y011877D01*
X019328Y011627D01*
X018828Y011627D01*
X018578Y011877D01*
X018328Y011627D01*
X017828Y011627D01*
X017578Y011877D01*
X018578Y011877D02*
X018578Y012377D01*
X019578Y012377D02*
X019578Y011877D01*
X020578Y011877D02*
X020828Y011627D01*
X021328Y011627D01*
X021578Y011877D01*
X022578Y011877D02*
X022578Y012377D01*
X023578Y011877D02*
X023828Y011627D01*
X024328Y011627D01*
X024578Y011877D01*
X025578Y011877D02*
X025578Y012377D01*
X027578Y012377D02*
X027578Y011877D01*
X033728Y011127D02*
X033728Y010977D01*
X033728Y010627D01*
X033728Y009627D01*
X033728Y009277D01*
X033728Y009127D01*
X033928Y008927D01*
X034528Y008927D01*
X034628Y008927D01*
X034628Y008827D01*
X035228Y008827D01*
X035228Y008927D01*
X035328Y008927D01*
X035928Y008927D01*
X036128Y009127D01*
X036128Y009277D01*
X036128Y009627D01*
X036128Y010577D01*
X036128Y010977D01*
X036128Y011127D01*
X035928Y011327D01*
X035328Y011327D01*
X035228Y011327D01*
X035228Y011427D01*
X034628Y011427D01*
X034628Y011327D01*
X034528Y011327D01*
X033928Y011327D01*
X033728Y011127D01*
X033878Y010977D02*
X033910Y011085D01*
X033995Y011159D01*
X034106Y011175D01*
X034209Y011128D01*
X034270Y011033D01*
X034270Y010921D01*
X034209Y010826D01*
X034106Y010779D01*
X033995Y010795D01*
X033910Y010869D01*
X033878Y010977D01*
X034028Y010627D02*
X034028Y009627D01*
X033878Y009277D02*
X033910Y009385D01*
X033995Y009459D01*
X034106Y009475D01*
X034209Y009428D01*
X034270Y009333D01*
X034270Y009221D01*
X034209Y009126D01*
X034106Y009079D01*
X033995Y009095D01*
X033910Y009169D01*
X033878Y009277D01*
X034428Y009177D02*
X034728Y009177D01*
X035078Y009277D01*
X035128Y009177D02*
X035428Y009177D01*
X035578Y009277D02*
X035610Y009385D01*
X035695Y009459D01*
X035806Y009475D01*
X035909Y009428D01*
X035970Y009333D01*
X035970Y009221D01*
X035909Y009126D01*
X035806Y009079D01*
X035695Y009095D01*
X035610Y009169D01*
X035578Y009277D01*
X035778Y009627D02*
X035778Y010627D01*
X035528Y010977D02*
X035560Y011085D01*
X035645Y011159D01*
X035756Y011175D01*
X035859Y011128D01*
X035920Y011033D01*
X035920Y010921D01*
X035859Y010826D01*
X035756Y010779D01*
X035645Y010795D01*
X035560Y010869D01*
X035528Y010977D01*
X034828Y010127D02*
X034857Y010198D01*
X034928Y010227D01*
X034999Y010198D01*
X035028Y010127D01*
X034999Y010056D01*
X034928Y010027D01*
X034857Y010056D01*
X034828Y010127D01*
X034228Y010127D02*
X034266Y010354D01*
X034376Y010557D01*
X034545Y010713D01*
X034756Y010806D01*
X034986Y010825D01*
X035209Y010768D01*
X035402Y010642D01*
X035544Y010460D01*
X035618Y010242D01*
X035618Y010012D01*
X035544Y009794D01*
X035402Y009612D01*
X035209Y009486D01*
X034986Y009429D01*
X034756Y009448D01*
X034545Y009541D01*
X034376Y009697D01*
X034266Y009900D01*
X034228Y010127D01*
X033128Y009777D02*
X029628Y009777D01*
X029628Y008027D01*
X029678Y008027D01*
X029678Y007527D01*
X029628Y007527D01*
X029628Y006577D01*
X030028Y006577D01*
X030128Y006577D01*
X030128Y009277D01*
X032628Y009277D01*
X032628Y002277D01*
X030128Y002277D01*
X030128Y003977D01*
X030128Y004577D01*
X030128Y004977D01*
X030028Y004977D01*
X029628Y004977D01*
X029628Y006577D01*
X030128Y006577D02*
X030428Y006577D01*
X030428Y004977D01*
X030128Y004977D01*
X029828Y004777D02*
X029628Y004927D01*
X029628Y004977D01*
X029828Y004777D02*
X029828Y004577D01*
X029828Y003977D01*
X030028Y003977D01*
X030128Y003977D01*
X029828Y003977D02*
X029828Y003777D01*
X029628Y003627D01*
X029628Y001777D01*
X033128Y001777D01*
X033128Y002277D01*
X033228Y002277D01*
X033228Y002777D01*
X033128Y002777D01*
X033128Y005527D01*
X033228Y005527D01*
X033228Y006027D01*
X033128Y006027D01*
X033128Y008777D01*
X033228Y008777D01*
X033228Y009277D01*
X033128Y009277D01*
X033128Y009777D01*
X029228Y009277D02*
X029228Y008477D01*
X029215Y008427D01*
X029178Y008390D01*
X029128Y008377D01*
X027428Y008377D01*
X027378Y008390D01*
X027341Y008427D01*
X027328Y008477D01*
X027328Y009277D01*
X027341Y009327D01*
X027378Y009364D01*
X027428Y009377D01*
X029128Y009377D01*
X029178Y009364D01*
X029215Y009327D01*
X029228Y009277D01*
X028578Y008877D02*
X028428Y008877D01*
X028378Y008877D01*
X028178Y008877D02*
X028128Y008877D01*
X027978Y008877D01*
X026978Y009727D02*
X006178Y009727D01*
X006178Y007627D01*
X006349Y007597D01*
X006499Y007510D01*
X006611Y007377D01*
X006670Y007214D01*
X006670Y007040D01*
X006611Y006877D01*
X006499Y006744D01*
X006349Y006657D01*
X006178Y006627D01*
X006178Y004527D01*
X026978Y004527D01*
X026978Y009727D01*
X033878Y007727D02*
X033878Y007027D01*
X033978Y006927D02*
X034128Y006927D01*
X034178Y006977D01*
X036078Y006977D01*
X036128Y006927D01*
X036278Y006927D01*
X036378Y007027D02*
X036378Y007727D01*
X036278Y007827D02*
X036128Y007827D01*
X036078Y007777D01*
X034178Y007777D01*
X034128Y007827D01*
X033978Y007827D01*
X037478Y007227D02*
X037478Y004527D01*
X037491Y004477D01*
X037528Y004440D01*
X037578Y004427D01*
X038578Y004427D01*
X038578Y004377D02*
X037578Y004377D01*
X037528Y004364D01*
X037491Y004327D01*
X037478Y004277D01*
X037478Y001577D01*
X037491Y001527D01*
X037528Y001490D01*
X037578Y001477D01*
X038578Y001477D01*
X038628Y001490D01*
X038665Y001527D01*
X038678Y001577D01*
X038678Y004277D01*
X038665Y004327D01*
X038628Y004364D01*
X038578Y004377D01*
X038578Y004427D02*
X038628Y004440D01*
X038665Y004477D01*
X038678Y004527D01*
X038678Y007227D01*
X038665Y007277D01*
X038628Y007314D01*
X038578Y007327D01*
X037578Y007327D01*
X037528Y007314D01*
X037491Y007277D01*
X037478Y007227D01*
X038078Y006477D02*
X038078Y006007D01*
X038078Y005757D02*
X038078Y005277D01*
X036578Y005277D02*
X036578Y005077D01*
X036078Y005077D01*
X035578Y005077D01*
X035578Y005277D01*
X036578Y005277D01*
X034978Y005377D02*
X035015Y005662D01*
X035125Y005927D01*
X035300Y006155D01*
X035528Y006330D01*
X035793Y006440D01*
X036078Y006477D01*
X036363Y006440D01*
X036628Y006330D01*
X036856Y006155D01*
X037031Y005927D01*
X037141Y005662D01*
X037178Y005377D01*
X037141Y005092D01*
X037031Y004827D01*
X036856Y004599D01*
X036628Y004424D01*
X036363Y004314D01*
X036078Y004277D01*
X035793Y004314D01*
X035528Y004424D01*
X035300Y004599D01*
X035125Y004827D01*
X035015Y005092D01*
X034978Y005377D01*
X034728Y005077D02*
X033728Y005077D01*
X033728Y003477D01*
X034728Y003477D01*
X034728Y005077D01*
X034228Y004877D02*
X034228Y004277D01*
X034478Y004277D01*
X034228Y004277D02*
X033978Y004277D01*
X034228Y004277D02*
X034228Y004027D01*
X034228Y004277D02*
X033978Y004677D01*
X034478Y004677D01*
X034228Y004277D01*
X035578Y004577D02*
X035578Y004727D01*
X035428Y004727D01*
X035578Y004727D02*
X035578Y004877D01*
X035578Y004727D02*
X035728Y004727D01*
X036078Y004727D02*
X036078Y005077D01*
X036078Y005627D02*
X036078Y006027D01*
X030128Y004577D02*
X030028Y004577D01*
X029828Y004577D01*
X029028Y004727D02*
X029028Y007127D01*
X028996Y007328D01*
X028904Y007509D01*
X028760Y007653D01*
X028579Y007745D01*
X028378Y007777D01*
X028177Y007745D01*
X027996Y007653D01*
X027852Y007509D01*
X027760Y007328D01*
X027728Y007127D01*
X027728Y004727D01*
X027760Y004526D01*
X027852Y004345D01*
X027996Y004201D01*
X028177Y004109D01*
X028378Y004077D01*
X028579Y004109D01*
X028760Y004201D01*
X028904Y004345D01*
X028996Y004526D01*
X029028Y004727D01*
X028378Y005427D02*
X028378Y005677D01*
X028078Y005677D01*
X028078Y005827D02*
X028078Y006027D01*
X028678Y006027D01*
X028678Y005827D01*
X028078Y005827D01*
X028378Y005677D02*
X028678Y005677D01*
X028678Y006177D02*
X028378Y006177D01*
X028378Y006427D01*
X028378Y006177D02*
X028078Y006177D01*
X036078Y003527D02*
X036078Y003127D01*
X034978Y002877D02*
X035015Y003162D01*
X035125Y003427D01*
X035300Y003655D01*
X035528Y003830D01*
X035793Y003940D01*
X036078Y003977D01*
X036363Y003940D01*
X036628Y003830D01*
X036856Y003655D01*
X037031Y003427D01*
X037141Y003162D01*
X037178Y002877D01*
X037141Y002592D01*
X037031Y002327D01*
X036856Y002099D01*
X036628Y001924D01*
X036363Y001814D01*
X036078Y001777D01*
X035793Y001814D01*
X035528Y001924D01*
X035300Y002099D01*
X035125Y002327D01*
X035015Y002592D01*
X034978Y002877D01*
X035578Y002777D02*
X035578Y002577D01*
X036078Y002577D01*
X036578Y002577D01*
X036578Y002777D01*
X035578Y002777D01*
X036078Y002577D02*
X036078Y002227D01*
X035728Y002227D02*
X035578Y002227D01*
X035428Y002227D01*
X035578Y002227D02*
X035578Y002077D01*
X035578Y002227D02*
X035578Y002377D01*
X038078Y002327D02*
X038078Y002807D01*
X038078Y003057D02*
X038078Y003527D01*
X029328Y002777D02*
X029328Y001977D01*
X029315Y001927D01*
X029278Y001890D01*
X029228Y001877D01*
X027528Y001877D01*
X027478Y001890D01*
X027441Y001927D01*
X027428Y001977D01*
X027428Y002777D01*
X027441Y002827D01*
X027478Y002864D01*
X027528Y002877D01*
X029228Y002877D01*
X029278Y002864D01*
X029315Y002827D01*
X029328Y002777D01*
X028678Y002377D02*
X028528Y002377D01*
X028478Y002377D01*
X028278Y002377D02*
X028228Y002377D01*
X028078Y002377D01*
X026578Y002377D02*
X026328Y002627D01*
X025828Y002627D01*
X025578Y002377D01*
X025328Y002627D01*
X024828Y002627D01*
X024578Y002377D01*
X024578Y001877D01*
X024828Y001627D01*
X025328Y001627D01*
X025578Y001877D01*
X025578Y002377D01*
X024578Y002377D02*
X024328Y002627D01*
X023828Y002627D01*
X023578Y002377D01*
X023328Y002627D01*
X022828Y002627D01*
X022578Y002377D01*
X022328Y002627D01*
X021828Y002627D01*
X021578Y002377D01*
X021578Y001877D01*
X021828Y001627D01*
X022328Y001627D01*
X022578Y001877D01*
X022578Y002377D01*
X021578Y002377D02*
X021328Y002627D01*
X020828Y002627D01*
X020578Y002377D01*
X020328Y002627D01*
X019828Y002627D01*
X019578Y002377D01*
X019578Y001877D01*
X019328Y001627D01*
X018828Y001627D01*
X018578Y001877D01*
X018328Y001627D01*
X017828Y001627D01*
X017578Y001877D01*
X017328Y001627D01*
X016828Y001627D01*
X016578Y001877D01*
X016328Y001627D01*
X015828Y001627D01*
X015578Y001877D01*
X015328Y001627D01*
X014828Y001627D01*
X014578Y001877D01*
X014578Y002377D01*
X014828Y002627D01*
X015328Y002627D01*
X015578Y002377D01*
X015828Y002627D01*
X016328Y002627D01*
X016578Y002377D01*
X016578Y001877D01*
X015578Y001877D02*
X015578Y002377D01*
X014578Y002377D02*
X014578Y001877D01*
X014328Y001627D01*
X013828Y001627D01*
X013578Y001877D01*
X013328Y001627D01*
X012828Y001627D01*
X012578Y001877D01*
X012328Y001627D01*
X011828Y001627D01*
X011578Y001877D01*
X012578Y001877D02*
X012578Y002377D01*
X012828Y002627D01*
X013328Y002627D01*
X013578Y002377D01*
X013828Y002627D01*
X014328Y002627D01*
X014578Y002377D01*
X013578Y002377D02*
X013578Y001877D01*
X012578Y002377D02*
X012328Y002627D01*
X011828Y002627D01*
X011578Y002377D01*
X016578Y002377D02*
X016828Y002627D01*
X017328Y002627D01*
X017578Y002377D01*
X017828Y002627D01*
X018328Y002627D01*
X018578Y002377D01*
X018828Y002627D01*
X019328Y002627D01*
X019578Y002377D01*
X019578Y001877D01*
X019828Y001627D01*
X020328Y001627D01*
X020578Y001877D01*
X020578Y002377D01*
X020578Y001877D02*
X020828Y001627D01*
X021328Y001627D01*
X021578Y001877D01*
X022578Y001877D02*
X022828Y001627D01*
X023328Y001627D01*
X023578Y001877D01*
X023578Y002377D01*
X023578Y001877D02*
X023828Y001627D01*
X024328Y001627D01*
X024578Y001877D01*
X025578Y001877D02*
X025828Y001627D01*
X026328Y001627D01*
X026578Y001877D01*
X026578Y002377D01*
X018578Y002377D02*
X018578Y001877D01*
X017578Y001877D02*
X017578Y002377D01*
X002978Y002477D02*
X002825Y002447D01*
X002695Y002360D01*
X002608Y002230D01*
X002578Y002077D01*
X002728Y002077D02*
X002747Y002173D01*
X002801Y002254D01*
X002882Y002308D01*
X002978Y002327D01*
X003426Y002476D02*
X003509Y002356D01*
X003560Y002221D01*
X003578Y002077D01*
X003378Y002077D02*
X003348Y001924D01*
X003261Y001794D01*
X003131Y001707D01*
X002978Y001677D01*
X002978Y001827D02*
X003074Y001846D01*
X003155Y001900D01*
X003209Y001981D01*
X003228Y002077D01*
X003452Y002445D02*
X003320Y002570D01*
X003157Y002650D01*
X002978Y002677D01*
X001478Y002707D02*
X001478Y002227D01*
X002504Y002445D02*
X002636Y002570D01*
X002799Y002650D01*
X002978Y002677D01*
X001478Y002957D02*
X001478Y003427D01*
X002978Y001477D02*
X003161Y001505D01*
X003326Y001588D01*
X003458Y001717D01*
X002978Y001477D02*
X002791Y001507D01*
X002623Y001593D01*
X002490Y001728D01*
X002378Y002077D02*
X002414Y002281D01*
X002517Y002461D01*
X002378Y002077D02*
X002395Y001937D01*
X002444Y001804D01*
X002522Y001687D01*
X003439Y001693D02*
X003542Y001873D01*
X003578Y002077D01*
D17*
X019313Y005932D02*
X019313Y006352D01*
X019524Y006563D01*
X019734Y006352D01*
X019734Y005932D01*
X020168Y005932D02*
X020168Y006563D01*
X019958Y006563D02*
X020378Y006563D01*
X020602Y006563D02*
X020813Y006352D01*
X021023Y006563D01*
X021023Y005932D01*
X021247Y005932D02*
X021667Y005932D01*
X021892Y006037D02*
X021997Y005932D01*
X022207Y005932D01*
X022312Y006037D01*
X022312Y006247D01*
X022102Y006247D01*
X021892Y006037D02*
X021892Y006458D01*
X021997Y006563D01*
X022207Y006563D01*
X022312Y006458D01*
X022536Y006352D02*
X022746Y006563D01*
X022956Y006352D01*
X022956Y005932D01*
X023181Y006037D02*
X023286Y005932D01*
X023496Y005932D01*
X023601Y006037D01*
X023601Y006142D01*
X023496Y006247D01*
X023181Y006247D01*
X023181Y006037D01*
X023181Y006247D02*
X023391Y006458D01*
X023601Y006563D01*
X023825Y006247D02*
X024140Y006563D01*
X024140Y005932D01*
X024785Y005932D02*
X024785Y006563D01*
X024470Y006247D01*
X024890Y006247D01*
X025114Y006142D02*
X025429Y006142D01*
X025535Y006247D01*
X025535Y006458D01*
X025429Y006563D01*
X025114Y006563D01*
X025114Y005932D01*
X024245Y006247D02*
X023825Y006247D01*
X022956Y006247D02*
X022536Y006247D01*
X022536Y006352D02*
X022536Y005932D01*
X021457Y006247D02*
X021247Y006247D01*
X021247Y005932D02*
X021247Y006563D01*
X021667Y006563D01*
X020602Y006563D02*
X020602Y005932D01*
X019734Y006247D02*
X019313Y006247D01*
D18*
X005878Y003227D02*
X005528Y003227D01*
X005478Y003227D02*
X005278Y003227D01*
X005228Y003227D02*
X004878Y003227D01*
X003728Y003227D02*
X003378Y003227D01*
X003328Y003227D02*
X003128Y003227D01*
X003078Y003227D02*
X002728Y003227D01*
X033628Y007377D02*
X033778Y007377D01*
X036478Y007377D02*
X036628Y007377D01*
D19*
X036428Y007377D03*
X033828Y007377D03*
D20*
X034653Y007482D02*
X034804Y007632D01*
X034804Y007182D01*
X034954Y007182D02*
X034653Y007182D01*
X035114Y007257D02*
X035414Y007557D01*
X035414Y007257D01*
X035339Y007182D01*
X035189Y007182D01*
X035114Y007257D01*
X035114Y007557D01*
X035189Y007632D01*
X035339Y007632D01*
X035414Y007557D01*
X035574Y007632D02*
X035574Y007182D01*
X035574Y007332D02*
X035799Y007182D01*
X035574Y007332D02*
X035799Y007482D01*
X035928Y008352D02*
X036003Y008427D01*
X036003Y008577D01*
X035928Y008652D01*
X035853Y008652D01*
X035778Y008577D01*
X035778Y008502D01*
X035778Y008577D02*
X035703Y008652D01*
X035628Y008652D01*
X035553Y008577D01*
X035553Y008427D01*
X035628Y008352D01*
X034253Y008452D02*
X034253Y008752D01*
X034253Y008602D02*
X033803Y008602D01*
X033953Y008452D01*
X032103Y008342D02*
X031803Y008642D01*
X031728Y008642D01*
X031653Y008567D01*
X031653Y008417D01*
X031728Y008342D01*
X032103Y008342D02*
X032103Y008642D01*
X031103Y008642D02*
X031103Y008342D01*
X031103Y008492D02*
X030653Y008492D01*
X030803Y008342D01*
X028436Y009352D02*
X028436Y009802D01*
X028661Y009802D01*
X028736Y009727D01*
X028736Y009577D01*
X028661Y009502D01*
X028436Y009502D01*
X028276Y009502D02*
X027976Y009502D01*
X028276Y009802D01*
X028276Y009877D01*
X028201Y009952D01*
X028051Y009952D01*
X027976Y009877D01*
X027816Y009877D02*
X027741Y009952D01*
X027590Y009952D01*
X027515Y009877D01*
X027816Y009877D02*
X027816Y009802D01*
X027515Y009502D01*
X027816Y009502D01*
X027203Y009292D02*
X027203Y008992D01*
X027203Y009142D02*
X026753Y009142D01*
X026903Y008992D01*
X026828Y008832D02*
X026753Y008756D01*
X026753Y008606D01*
X026828Y008531D01*
X027128Y008531D01*
X027203Y008606D01*
X027203Y008756D01*
X027128Y008832D01*
X028971Y009502D02*
X028971Y009877D01*
X029047Y009952D01*
X028790Y010083D02*
X033278Y010083D01*
X033278Y012327D01*
X028790Y012327D01*
X028790Y010083D01*
X028896Y009727D02*
X029047Y009727D01*
X029814Y010555D02*
X032215Y010555D01*
X032215Y011855D01*
X029814Y011855D01*
X029814Y010555D01*
X030759Y010674D02*
X030759Y011737D01*
X031074Y011737D01*
X031074Y010674D01*
X030759Y010674D01*
X031074Y010674D02*
X031782Y010674D01*
X031782Y011737D01*
X032097Y011737D01*
X032097Y010674D01*
X031782Y010674D01*
X031428Y010713D02*
X031428Y011697D01*
X031074Y011737D02*
X031782Y011737D01*
X033853Y011777D02*
X033853Y011627D01*
X033928Y011552D01*
X034003Y011852D02*
X034303Y011552D01*
X034303Y011852D01*
X034003Y011852D02*
X033928Y011852D01*
X033853Y011777D01*
X035553Y011777D02*
X035778Y011552D01*
X035778Y011852D01*
X036003Y011777D02*
X035553Y011777D01*
X038908Y007202D02*
X038833Y007127D01*
X038833Y006827D01*
X038908Y006752D01*
X039058Y006752D01*
X039133Y006827D01*
X039293Y006977D02*
X039593Y006977D01*
X039518Y007202D02*
X039293Y006977D01*
X039133Y007127D02*
X039058Y007202D01*
X038908Y007202D01*
X039518Y007202D02*
X039518Y006752D01*
X030253Y005967D02*
X030253Y005817D01*
X030178Y005742D01*
X029878Y006042D01*
X030178Y006042D01*
X030253Y005967D01*
X029878Y006042D02*
X029803Y005967D01*
X029803Y005817D01*
X029878Y005742D01*
X030178Y005742D01*
X030253Y005582D02*
X030253Y005281D01*
X030253Y005431D02*
X029803Y005431D01*
X029953Y005281D01*
X027403Y005236D02*
X027403Y005386D01*
X027328Y005461D01*
X027253Y005461D01*
X027178Y005386D01*
X027178Y005161D01*
X027328Y005161D01*
X027403Y005236D01*
X027403Y005000D02*
X027403Y004700D01*
X027403Y004850D02*
X026953Y004850D01*
X027103Y004700D01*
X027178Y005161D02*
X027028Y005311D01*
X026953Y005461D01*
X027103Y005621D02*
X027103Y005696D01*
X027178Y005771D01*
X027103Y005846D01*
X027178Y005921D01*
X027403Y005921D01*
X027403Y005771D02*
X027178Y005771D01*
X027103Y005621D02*
X027403Y005621D01*
X027403Y006081D02*
X026953Y006081D01*
X027103Y006156D02*
X027103Y006306D01*
X027178Y006381D01*
X027403Y006381D01*
X027403Y006542D02*
X027403Y006842D01*
X027103Y006842D02*
X027403Y006542D01*
X027103Y006542D02*
X027103Y006842D01*
X027103Y006156D02*
X027178Y006081D01*
X027690Y003452D02*
X027615Y003377D01*
X027690Y003452D02*
X027841Y003452D01*
X027916Y003377D01*
X027916Y003302D01*
X027615Y003002D01*
X027916Y003002D01*
X028076Y003002D02*
X028376Y003302D01*
X028376Y003377D01*
X028301Y003452D01*
X028151Y003452D01*
X028076Y003377D01*
X028536Y003302D02*
X028761Y003302D01*
X028836Y003227D01*
X028836Y003077D01*
X028761Y003002D01*
X028536Y003002D01*
X028536Y002852D02*
X028536Y003302D01*
X028996Y003227D02*
X029147Y003227D01*
X029071Y003377D02*
X029147Y003452D01*
X029071Y003377D02*
X029071Y003002D01*
X028376Y003002D02*
X028076Y003002D01*
X027303Y002692D02*
X027303Y002392D01*
X027003Y002692D01*
X026928Y002692D01*
X026853Y002617D01*
X026853Y002467D01*
X026928Y002392D01*
X026928Y002232D02*
X026853Y002156D01*
X026853Y002006D01*
X026928Y001931D01*
X027228Y001931D01*
X027303Y002006D01*
X027303Y002156D01*
X027228Y002232D01*
X038803Y001827D02*
X038803Y001527D01*
X038878Y001452D01*
X039029Y001452D01*
X039104Y001527D01*
X039264Y001527D02*
X039339Y001452D01*
X039489Y001452D01*
X039564Y001527D01*
X039564Y001677D01*
X039489Y001752D01*
X039414Y001752D01*
X039264Y001677D01*
X039264Y001902D01*
X039564Y001902D01*
X039104Y001827D02*
X039029Y001902D01*
X038878Y001902D01*
X038803Y001827D01*
X005653Y006777D02*
X005578Y006702D01*
X005428Y006702D01*
X005428Y006927D01*
X005503Y007002D01*
X005578Y007002D01*
X005653Y006927D01*
X005653Y006777D01*
X005428Y006702D02*
X005278Y006852D01*
X005203Y007002D01*
X004803Y005152D02*
X004803Y004852D01*
X004803Y005002D02*
X004353Y005002D01*
X004503Y004852D01*
X003803Y004852D02*
X003503Y005152D01*
X003428Y005152D01*
X003353Y005077D01*
X003353Y004927D01*
X003428Y004852D01*
X003803Y004852D02*
X003803Y005152D01*
D21*
X003578Y005827D03*
X004578Y005827D03*
X004578Y006827D03*
X003578Y006827D03*
X001428Y006377D03*
X001428Y007377D03*
X003578Y007827D03*
X004578Y007827D03*
X001428Y008377D03*
X001428Y009377D03*
X001428Y010377D03*
X005778Y010477D03*
X005778Y011477D03*
X007078Y012127D03*
X008078Y012127D03*
X009078Y012127D03*
X010078Y012127D03*
X011078Y012127D03*
X012078Y012127D03*
X013078Y012127D03*
X014078Y012127D03*
X015078Y012127D03*
X016078Y012127D03*
X017078Y012127D03*
X018078Y012127D03*
X019078Y012127D03*
X020078Y012127D03*
X021078Y012127D03*
X022078Y012127D03*
X023078Y012127D03*
X024078Y012127D03*
X025078Y012127D03*
X026078Y012127D03*
X027078Y012127D03*
X028078Y012127D03*
X030878Y007777D03*
X031878Y007777D03*
X031878Y006777D03*
X030878Y006777D03*
X030878Y005777D03*
X031878Y005777D03*
X031878Y004777D03*
X030878Y004777D03*
X030878Y003777D03*
X031878Y003777D03*
X026078Y002127D03*
X025078Y002127D03*
X024078Y002127D03*
X023078Y002127D03*
X022078Y002127D03*
X021078Y002127D03*
X020078Y002127D03*
X019078Y002127D03*
X018078Y002127D03*
X017078Y002127D03*
X016078Y002127D03*
X015078Y002127D03*
X014078Y002127D03*
X013078Y002127D03*
X012078Y002127D03*
X011078Y002127D03*
X010078Y002127D03*
X009078Y002127D03*
X008078Y002127D03*
X007078Y002127D03*
X001428Y005377D03*
D22*
X002358Y002577D02*
X002358Y001577D01*
X002978Y001277D02*
X003192Y001306D01*
X003390Y001391D01*
X003558Y001526D01*
X003684Y001701D01*
X003673Y002474D02*
X003546Y002641D01*
X003380Y002769D01*
X003186Y002850D01*
X002978Y002877D01*
X003659Y002496D02*
X003748Y002295D01*
X003778Y002077D01*
X003754Y001881D01*
X003682Y001698D01*
X002978Y002877D02*
X002750Y002844D01*
X002540Y002747D01*
X002367Y002594D01*
X002363Y001565D02*
X002537Y001410D01*
X002748Y001311D01*
X002978Y001277D01*
X004958Y001577D02*
X004958Y002577D01*
X006259Y002496D02*
X006348Y002295D01*
X006378Y002077D01*
X006273Y002474D02*
X006146Y002641D01*
X005980Y002769D01*
X005786Y002850D01*
X005578Y002877D01*
X006378Y002077D02*
X006354Y001881D01*
X006282Y001698D01*
X005578Y002877D02*
X005350Y002844D01*
X005140Y002747D01*
X004967Y002594D01*
X005578Y001277D02*
X005792Y001306D01*
X005990Y001391D01*
X006158Y001526D01*
X006284Y001701D01*
X005578Y001277D02*
X005348Y001311D01*
X005137Y001410D01*
X004963Y001565D01*
X028178Y008577D02*
X028178Y008877D01*
X028178Y009177D01*
X028378Y009177D02*
X028378Y008877D01*
X028378Y008577D01*
X028478Y002677D02*
X028478Y002377D01*
X028478Y002077D01*
X028278Y002077D02*
X028278Y002377D01*
X028278Y002677D01*
D23*
X037828Y002807D02*
X038078Y002807D01*
X038328Y002807D01*
X038328Y003057D02*
X038078Y003057D01*
X037828Y003057D01*
X037828Y005757D02*
X038078Y005757D01*
X038328Y005757D01*
X038328Y006007D02*
X038078Y006007D01*
X037828Y006007D01*
X003758Y010327D02*
X003758Y010577D01*
X003758Y010827D01*
X003508Y010827D02*
X003508Y010577D01*
X003508Y010327D01*
X001728Y002957D02*
X001478Y002957D01*
X001228Y002957D01*
X001228Y002707D02*
X001478Y002707D01*
X001728Y002707D01*
D24*
X034228Y003727D03*
X036078Y003077D03*
X036078Y005577D03*
D25*
X034228Y005877D02*
X034228Y006277D01*
X034228Y002677D02*
X034228Y002277D01*
D26*
X034228Y003102D03*
X034228Y005452D03*
D27*
X038878Y006127D02*
X040378Y006127D01*
X040378Y002127D01*
X038878Y002127D01*
X038878Y006127D01*
X040378Y006127D02*
X040628Y006127D01*
X040628Y007377D01*
X037378Y007377D01*
X037378Y007877D01*
X041128Y007877D01*
X041128Y000377D01*
X037378Y000377D01*
X037378Y000877D01*
X040628Y000877D01*
X040628Y002127D01*
X040378Y002127D01*
X040628Y002127D02*
X040628Y006127D01*
X041211Y008195D02*
X037353Y008195D01*
X037353Y008903D01*
X037353Y008932D02*
X037353Y010922D01*
X037353Y010951D02*
X037353Y011659D01*
X039439Y011659D01*
X039518Y011659D02*
X042589Y011659D01*
X042589Y008195D01*
X041211Y008195D01*
X041211Y011659D01*
M02*
